<svg width="30" height="30" viewBox="0 0 30 30" fill="none" xmlns="http://www.w3.org/2000/svg">
<path d="M8.75 12.0837C8.75 11.1996 9.10123 10.3516 9.72643 9.72643C10.3516 9.10123 11.1996 8.75 12.0837 8.75H22.9163C23.354 8.75 23.7876 8.83623 24.192 9.00377C24.5965 9.1713 24.964 9.41687 25.2736 9.72643C25.5831 10.036 25.8287 10.4035 25.9962 10.808C26.1638 11.2124 26.25 11.646 26.25 12.0837V22.9163C26.25 23.354 26.1638 23.7876 25.9962 24.192C25.8287 24.5965 25.5831 24.964 25.2736 25.2736C24.964 25.5831 24.5965 25.8287 24.192 25.9962C23.7876 26.1638 23.354 26.25 22.9163 26.25H12.0837C11.646 26.25 11.2124 26.1638 10.808 25.9962C10.4035 25.8287 10.036 25.5831 9.72643 25.2736C9.41687 24.964 9.1713 24.5965 9.00377 24.192C8.83623 23.7876 8.75 23.354 8.75 22.9163V12.0837Z" stroke="black" stroke-width="2" stroke-linecap="round" stroke-linejoin="round"/>
<path d="M5.015 20.9212C4.63168 20.7027 4.31284 20.3869 4.09072 20.0056C3.8686 19.6244 3.75106 19.1912 3.75 18.75V6.25C3.75 4.875 4.875 3.75 6.25 3.75H18.75C19.6875 3.75 20.1975 4.23125 20.625 5" stroke="black" stroke-width="2" stroke-linecap="round" stroke-linejoin="round"/>
</svg>
