<svg width="30" height="30" viewBox="0 0 30 30" fill="none" xmlns="http://www.w3.org/2000/svg">
<path fill-rule="evenodd" clip-rule="evenodd" d="M23.5632 8.06302C24.0124 7.61392 24.0124 6.88578 23.5632 6.43668C23.1142 5.98758 22.386 5.98758 21.937 6.43668L15.0001 13.3735L8.06328 6.43668C7.61416 5.98758 6.88602 5.98758 6.43692 6.43668C5.98782 6.88578 5.98782 7.61392 6.43692 8.06302L13.3738 14.9999L6.43692 21.9367C5.98782 22.3859 5.98782 23.1139 6.43692 23.5631C6.88602 24.0121 7.61416 24.0121 8.06328 23.5631L15.0001 16.6262L21.937 23.5631C22.386 24.0121 23.1142 24.0121 23.5632 23.5631C24.0124 23.1139 24.0124 22.3859 23.5632 21.9367L16.6264 14.9999L23.5632 8.06302Z" fill="black"/>
</svg>
