<svg width="39" height="40" viewBox="0 0 39 40" fill="none" xmlns="http://www.w3.org/2000/svg">
<path d="M32.4717 13.3333L19.483 21.6666L6.49426 13.3333V9.99996L19.483 18.3333L32.4717 9.99996M32.4717 6.66663H6.49426C4.69207 6.66663 3.24707 8.14996 3.24707 9.99996V30C3.24707 30.884 3.58918 31.7319 4.19815 32.357C4.80711 32.9821 5.63305 33.3333 6.49426 33.3333H32.4717C33.3329 33.3333 34.1589 32.9821 34.7678 32.357C35.3768 31.7319 35.7189 30.884 35.7189 30V9.99996C35.7189 8.14996 34.2577 6.66663 32.4717 6.66663Z" fill="black"/>
<path d="M32.4717 13.3333L19.483 21.6666L6.49426 13.3333V9.99996L19.483 18.3333L32.4717 9.99996M32.4717 6.66663H6.49426C4.69207 6.66663 3.24707 8.14996 3.24707 9.99996V30C3.24707 30.884 3.58918 31.7319 4.19815 32.357C4.80711 32.9821 5.63305 33.3333 6.49426 33.3333H32.4717C33.3329 33.3333 34.1589 32.9821 34.7678 32.357C35.3768 31.7319 35.7189 30.884 35.7189 30V9.99996C35.7189 8.14996 34.2577 6.66663 32.4717 6.66663Z" stroke="black"/>
</svg>
