<svg width="200" height="200" viewBox="0 0 200 200" fill="none" xmlns="http://www.w3.org/2000/svg">
<path d="M81.5333 127.674C82.5085 128.375 84.0691 130.048 84.9276 130.967C84.9434 130.984 84.9592 131.001 84.975 131.018C85.1788 131.236 85.3765 131.438 85.6083 131.674C86.1611 132.236 86.908 132.996 88.3934 134.656C88.8542 135.111 89.3136 135.567 89.7711 136.024C89.8886 136.142 90.0061 136.259 90.1234 136.377L91.743 137.892L90.1234 139.623C87.1758 142.565 84.1885 145.466 81.1809 148.348L79.7677 149.858L78.1528 148.348C76.3135 146.428 74.4825 144.499 72.6547 142.568C72.5916 142.506 72.5274 142.444 72.4625 142.38C71.4941 141.434 70.3462 140.311 69.4519 139.382H72.2151C71.9413 139.645 71.6842 139.886 71.4532 140.095C70.162 141.259 69.2693 142.034 68.5336 142.668C66.7006 144.401 64.87 146.137 63.0461 147.879L62.0699 148.923L60.9542 147.879C58.8613 145.689 56.7588 143.508 54.6391 141.344C53.8448 140.533 53.0479 139.724 52.2483 138.919L51.3318 138.061L52.2483 137.082C52.6775 136.656 53.1059 136.229 53.5334 135.801C54.6662 134.669 55.7949 133.531 56.9195 132.39C57.5494 131.701 58.1412 131.038 58.6901 130.424C59.4613 129.56 60.148 128.792 60.7356 128.177C60.7803 128.131 60.8253 128.084 60.8705 128.037V130.296C59.4306 128.909 57.9016 127.282 56.7568 126.064C56.5636 125.859 56.3812 125.665 56.2122 125.486C55.2247 124.536 54.2357 123.587 53.2465 122.638C53.1932 122.562 53.1399 122.485 53.0858 122.407C52.8403 122.051 52.5494 121.69 52.2015 121.299L51.2383 120.398L52.2015 119.368C52.8868 118.759 53.6671 117.976 54.6834 116.956C55.3789 116.258 56.1851 115.449 57.1467 114.51C57.7663 113.904 58.1412 113.65 58.4474 113.442C58.5374 113.381 58.6219 113.323 58.7046 113.262C58.988 113.053 59.2071 112.754 59.4658 112.4C59.8015 111.94 60.2041 111.389 60.9014 110.826C60.9813 110.761 61.0592 110.698 61.1354 110.635L61.9425 109.772L62.865 110.635C64.5419 112.676 65.526 113.383 66.277 113.922C66.5055 114.086 66.7125 114.235 66.9108 114.401C67.5539 114.939 68.3435 115.833 68.9083 116.54C69.3561 117.101 70.4212 118.054 71.2577 118.748C71.436 118.896 71.6384 119.084 71.8637 119.303H69.8033C69.9727 119.129 70.1602 118.941 70.361 118.739C70.8372 118.262 71.3884 117.709 71.9485 117.089C73.3639 115.521 74.1196 114.691 74.7273 114.024C74.9006 113.834 75.0621 113.657 75.2232 113.48C75.7321 112.92 76.3742 112.236 77.0244 111.544C77.4665 111.073 77.9125 110.598 78.3226 110.156L79.5773 108.815L81.011 110.156C81.3471 110.467 81.6644 110.758 81.947 111.012C83.5187 112.656 85.0819 114.308 86.6449 115.961C87.4476 116.81 88.1094 117.733 88.4781 118.532C88.8465 119.331 88.8935 119.94 88.6025 120.231C88.3113 120.522 87.7024 120.475 86.9032 120.107C86.104 119.738 85.1808 119.076 84.3318 118.274C82.622 116.656 80.9118 115.039 79.2112 113.412C78.9632 113.174 78.7153 112.937 78.4677 112.699H80.8659C79.1182 114.52 77.3579 116.328 75.5738 118.112C74.4135 119.272 73.2485 120.428 72.0797 121.58L70.7505 122.823L69.5873 121.58C69.3317 121.32 69.0763 121.061 68.8211 120.801C68.6764 120.654 68.5318 120.506 68.3873 120.359C67.1245 119.239 65.8705 118.116 65.0097 117.302C64.2989 116.629 63.833 116.087 63.4339 115.622C63.1593 115.303 62.9163 115.02 62.6471 114.757C62.5025 114.616 62.3029 114.425 62.0623 114.195C61.6799 113.829 61.1937 113.365 60.6588 112.841H63.3415C62.5199 113.681 61.5539 114.642 60.6015 115.509C59.9098 116.138 59.0811 116.844 58.29 117.519C57.1588 118.483 56.1039 119.382 55.6346 119.899C55.197 120.382 54.7017 120.878 54.1972 121.364V119.303C54.6265 119.749 55.0479 120.201 55.4448 120.628C56.2519 121.495 56.9579 122.253 57.4228 122.621C57.9783 123.061 58.379 123.509 58.9749 124.175C59.3882 124.637 59.8955 125.203 60.6134 125.945C61.4422 126.801 61.9977 127.438 62.4699 127.979C62.5856 128.112 62.6964 128.239 62.805 128.362L63.608 129.22L62.805 129.972C62.2215 130.486 61.7254 130.952 61.1205 131.668C60.3069 132.631 59.4261 133.607 58.6713 134.314C58.3275 134.637 57.9492 135.02 57.5555 135.419C57.0344 135.948 56.4862 136.503 55.9555 136.981C55.5181 137.374 55.1183 137.66 54.7646 137.914C54.6543 137.993 54.5484 138.069 54.4473 138.144C54.2583 138.334 54.0695 138.524 53.8808 138.714V137.286C54.0227 137.427 54.1647 137.568 54.3068 137.708C54.3695 137.753 54.4358 137.799 54.505 137.848C54.852 138.09 55.2786 138.389 55.7593 138.806C56.5202 139.466 57.112 140.121 57.7361 140.812C58.222 141.35 58.7275 141.91 59.348 142.511C59.7711 142.921 60.2684 143.372 60.7613 143.819C61.4934 144.483 62.2162 145.139 62.674 145.639C62.7622 145.736 62.8365 145.833 62.9038 145.93H61.0966C61.1882 145.866 61.28 145.809 61.3713 145.752C61.3722 145.751 61.3731 145.751 61.374 145.751C61.3867 145.743 61.3995 145.735 61.4122 145.727C62.5517 144.533 63.6885 143.336 64.8237 142.139C64.9156 142.028 65.0088 141.917 65.1012 141.807C65.5526 141.269 65.9912 140.746 66.2448 140.373C66.5198 139.969 67.336 139.078 68.1962 138.138C68.6477 137.645 69.1115 137.138 69.5155 136.682L70.9213 135.367L72.1515 136.682C72.2644 136.782 72.3743 136.878 72.4801 136.97C72.7918 137.24 73.0311 137.552 73.2772 137.874C73.5068 138.174 73.7425 138.482 74.0486 138.77C74.2019 138.914 74.3778 139.06 74.5656 139.215C74.7309 139.352 74.9057 139.497 75.0822 139.654C75.2461 139.801 75.5722 140.167 75.9905 140.636C76.249 140.926 76.5428 141.255 76.8552 141.597C77.7422 142.438 78.6284 143.281 79.5129 144.124C79.7253 144.273 79.9233 144.388 80.1006 144.458C80.2277 144.508 80.3492 144.538 80.4738 144.569C80.6432 144.611 80.8185 144.655 81.0218 144.753C81.1807 144.83 81.3361 144.952 81.4124 145.063C81.4159 145.068 81.4192 145.073 81.4224 145.078H77.9113C77.9571 145.049 78.0003 145.032 78.0398 145.017C78.0901 144.998 78.1348 144.981 78.1723 144.943C78.1992 144.915 78.2166 144.876 78.2382 144.827C78.2728 144.75 78.3178 144.651 78.4272 144.539C78.8341 144.125 79.3096 143.667 79.7754 143.219C80.2934 142.72 80.7996 142.232 81.1873 141.828C81.6216 141.376 82.2943 140.785 82.968 140.192C83.4379 139.779 83.9084 139.365 84.2994 138.997C84.6825 138.637 85.0471 138.227 85.4 137.83C85.8235 137.354 86.2308 136.895 86.6344 136.563C86.6994 136.51 86.7991 136.468 86.9234 136.423V139.577C86.9118 139.545 86.8999 139.511 86.8875 139.476C86.8446 139.355 86.7949 139.216 86.7286 139.067C86.2604 138.598 85.7939 138.128 85.3291 137.657C85.3066 137.646 85.2835 137.635 85.2602 137.625C85.2598 137.624 85.2594 137.624 85.2589 137.624C84.7337 137.38 84.0149 137.047 83.3904 136.192C83.2316 135.975 83.1672 135.803 83.1092 135.648C83.0521 135.496 83.0012 135.359 82.8732 135.213C82.7278 135.048 82.5149 134.893 82.2829 134.725C81.9571 134.489 81.5931 134.224 81.3245 133.863C81.3062 133.838 81.2865 133.812 81.2659 133.784C81.0706 133.523 80.7814 133.136 80.5434 132.701C79.8277 131.946 79.1144 131.189 78.4029 130.431L77.1417 129.083L78.4029 127.903C78.6745 127.648 78.9463 127.394 79.2183 127.139C80.9381 125.531 82.6662 123.931 84.3937 122.331C85.2345 121.553 86.1448 120.911 86.9318 120.553C87.719 120.196 88.3168 120.15 88.6025 120.436C88.888 120.721 88.8424 121.319 88.4849 122.106C88.1271 122.893 87.4849 123.803 86.7068 124.644C85.4375 126.015 84.1679 127.386 82.8946 128.753C82.8313 128.828 82.7676 128.903 82.7038 128.977C82.2292 129.532 81.8321 130.09 81.4348 130.648C81.3952 130.704 81.3555 130.76 81.3157 130.816V127.518C81.3882 127.57 81.4608 127.622 81.5333 127.674ZM127.3 121.826C126.325 121.125 124.765 119.453 123.906 118.533C123.89 118.516 123.874 118.499 123.859 118.482C123.655 118.264 123.457 118.062 123.225 117.827C122.673 117.264 121.926 116.504 120.44 114.844C119.979 114.389 119.52 113.934 119.062 113.476C118.945 113.359 118.828 113.241 118.71 113.123H121.957C119.009 116.065 116.022 118.966 113.014 121.847V118.819C114.854 120.739 116.685 122.667 118.512 124.599C118.575 124.661 118.64 124.723 118.704 124.787C119.673 125.733 120.821 126.855 121.715 127.785L123.094 129.075L121.715 130.548C121.441 130.812 121.184 131.053 120.953 131.261C119.662 132.426 118.769 133.2 118.034 133.834C116.201 135.568 114.37 137.304 112.546 139.046V136.954C114.639 139.145 116.742 141.326 118.861 143.49C119.656 144.301 120.452 145.109 121.252 145.915H119.415C119.844 145.489 120.273 145.062 120.7 144.635C121.833 143.502 122.962 142.365 124.086 141.224C124.716 140.534 125.308 139.871 125.857 139.257C126.628 138.394 127.315 137.625 127.902 137.011C127.947 136.964 127.992 136.917 128.037 136.87L129.092 135.743L130.297 136.87C131.736 138.258 133.265 139.885 134.41 141.102C134.603 141.308 134.786 141.502 134.955 141.681C135.942 142.631 136.931 143.58 137.921 144.528C137.974 144.605 138.027 144.682 138.081 144.76C138.327 145.116 138.618 145.476 138.966 145.868H137.035C137.72 145.259 138.5 144.476 139.517 143.456C140.212 142.758 141.018 141.949 141.98 141.01C142.6 140.404 142.975 140.15 143.281 139.942C143.371 139.881 143.455 139.823 143.538 139.762C143.821 139.553 144.04 139.254 144.299 138.9C144.635 138.44 145.037 137.889 145.735 137.326C145.815 137.261 145.893 137.198 145.969 137.135V138.865C144.292 136.824 143.308 136.118 142.557 135.578C142.328 135.414 142.121 135.265 141.923 135.099C141.28 134.561 140.49 133.668 139.925 132.96C139.477 132.399 138.412 131.446 137.576 130.753C137.398 130.605 137.195 130.416 136.97 130.197L135.942 129.235L136.97 128.137C137.139 127.962 137.327 127.774 137.528 127.573C138.004 127.095 138.555 126.543 139.115 125.922C140.531 124.354 141.286 123.524 141.894 122.857C142.067 122.667 142.229 122.49 142.39 122.313C142.899 121.753 143.541 121.07 144.191 120.377C144.633 119.906 145.079 119.432 145.489 118.989V121.678C145.153 121.366 144.836 121.075 144.553 120.822C142.982 119.178 141.418 117.525 139.855 115.873C139.053 115.024 138.391 114.101 138.022 113.302C137.654 112.502 137.607 111.894 137.898 111.602C138.189 111.311 138.798 111.358 139.597 111.727C140.396 112.095 141.319 112.757 142.168 113.56C143.878 115.177 145.589 116.795 147.289 118.422C147.537 118.659 147.785 118.897 148.033 119.134L149.229 120.413L148.033 121.533C146.285 123.353 144.525 125.161 142.741 126.945C141.58 128.105 140.415 129.261 139.246 130.413V127.921C139.502 128.18 139.757 128.44 140.013 128.699C140.157 128.847 140.302 128.994 140.446 129.141C141.709 130.261 142.963 131.384 143.824 132.199C144.535 132.871 145.001 133.413 145.4 133.878C145.674 134.198 145.917 134.48 146.187 134.743C146.331 134.884 146.531 135.075 146.771 135.305C147.154 135.671 147.64 136.135 148.175 136.659L149.513 138.089L148.175 139.341C147.353 140.181 146.387 141.142 145.435 142.009C144.743 142.638 143.914 143.344 143.123 144.019C141.992 144.983 140.937 145.882 140.468 146.399C140.03 146.882 139.535 147.378 139.031 147.864L137.931 148.892L136.97 147.864C136.54 147.418 136.119 146.965 135.722 146.539C134.915 145.672 134.209 144.913 133.744 144.546C133.189 144.106 132.788 143.658 132.192 142.992C131.779 142.53 131.271 141.964 130.554 141.222C129.725 140.366 129.169 139.729 128.697 139.188C128.581 139.055 128.471 138.928 128.362 138.805H129.972C129.388 139.32 128.892 139.785 128.287 140.501C127.474 141.464 126.593 142.44 125.838 143.148C125.494 143.47 125.116 143.853 124.722 144.253C124.201 144.781 123.653 145.337 123.122 145.814C122.685 146.207 122.285 146.494 121.931 146.747C121.821 146.827 121.715 146.903 121.614 146.978C121.425 147.167 121.236 147.357 121.047 147.547L120.286 148.26L119.62 147.547C119.478 147.407 119.336 147.266 119.194 147.125C119.131 147.081 119.065 147.034 118.995 146.986C118.648 146.743 118.222 146.445 117.741 146.028C116.98 145.368 116.388 144.713 115.764 144.022C115.278 143.483 114.773 142.924 114.152 142.323C113.729 141.913 113.232 141.462 112.739 141.015C112.007 140.35 111.284 139.694 110.826 139.194C110.738 139.098 110.664 139.001 110.597 138.904L109.695 137.94L110.597 137.096C110.688 137.033 110.78 136.976 110.871 136.919C110.872 136.918 110.873 136.918 110.874 136.917C110.887 136.909 110.899 136.901 110.912 136.893C112.052 135.7 113.189 134.503 114.324 133.305C114.416 133.195 114.509 133.084 114.601 132.974C115.053 132.436 115.491 131.913 115.745 131.54C116.02 131.136 116.836 130.244 117.696 129.305C118.148 128.812 118.612 128.305 119.015 127.849V130.485C118.903 130.385 118.793 130.288 118.687 130.197C118.375 129.927 118.136 129.615 117.89 129.293C117.66 128.993 117.424 128.685 117.118 128.397C116.965 128.253 116.789 128.107 116.601 127.952C116.436 127.815 116.261 127.67 116.085 127.512C115.921 127.366 115.595 127 115.177 126.531C114.918 126.241 114.624 125.912 114.312 125.57C113.425 124.729 112.539 123.886 111.654 123.042C111.442 122.894 111.244 122.779 111.066 122.709C110.939 122.658 110.818 122.629 110.693 122.598C110.524 122.556 110.348 122.512 110.145 122.414C109.986 122.337 109.831 122.214 109.755 122.104C109.751 122.099 109.748 122.094 109.745 122.089L107.993 120.216L109.745 118.578C109.79 118.549 109.834 118.532 109.873 118.517C109.923 118.498 109.968 118.481 110.006 118.443C110.033 118.415 110.05 118.376 110.072 118.327C110.106 118.25 110.151 118.151 110.26 118.039C110.667 117.625 111.143 117.167 111.609 116.719C112.127 116.22 112.633 115.732 113.021 115.328C113.455 114.876 114.128 114.285 114.801 113.692C115.271 113.279 115.742 112.865 116.133 112.497C116.516 112.137 116.88 111.727 117.233 111.33C117.657 110.854 118.064 110.395 118.468 110.063C118.533 110.01 118.632 109.968 118.757 109.923L120.439 108.35L121.91 109.923C121.922 109.955 121.934 109.989 121.946 110.024C121.989 110.145 122.039 110.285 122.105 110.433C122.573 110.902 123.04 111.372 123.505 111.843C123.527 111.854 123.55 111.865 123.573 111.876C123.574 111.876 123.574 111.876 123.575 111.876C124.1 112.12 124.819 112.454 125.443 113.308C125.602 113.525 125.666 113.697 125.724 113.852C125.782 114.005 125.832 114.141 125.96 114.287C126.106 114.452 126.319 114.607 126.551 114.775C126.877 115.012 127.24 115.276 127.509 115.637C127.527 115.662 127.547 115.689 127.568 115.716C127.763 115.978 128.052 116.365 128.29 116.8C129.006 117.554 129.719 118.311 130.431 119.069H127.903C128.174 118.815 128.446 118.56 128.718 118.306C130.438 116.698 132.166 115.098 133.894 113.498C134.735 112.72 135.645 112.078 136.432 111.72C137.219 111.362 137.817 111.317 138.102 111.602C138.388 111.888 138.342 112.486 137.985 113.273C137.627 114.06 136.985 114.97 136.207 115.811C134.938 117.181 133.668 118.552 132.395 119.919C132.331 119.994 132.268 120.07 132.204 120.144C131.729 120.699 131.332 121.257 130.935 121.815C130.895 121.871 130.855 121.926 130.816 121.982L129.277 123.627L127.518 121.982C127.445 121.931 127.373 121.879 127.3 121.826ZM177.376 165.505C177.39 165.869 177.403 166.257 177.414 166.667C178.181 172.824 172.134 181.997 166.643 183.901C166.543 183.948 166.442 183.994 166.341 184.04C165.028 184.627 163.729 185.064 162.168 185.381C161.058 185.601 159.811 185.756 158.333 185.752C155.291 185.739 151.131 185.709 144.577 185.622C141.858 185.627 139.139 185.629 136.421 185.629C107.064 185.629 77.7066 185.468 48.3494 185.276C47.9785 185.277 47.6013 185.278 47.2203 185.279C45.4476 185.283 43.5724 185.289 41.6668 185.293C34.8079 185.479 28.4183 180.898 26.0187 176.705C23.8178 173.178 23.1724 169.624 23.2122 166.667C23.2525 164.068 23.2906 161.855 23.3259 159.856C23.3293 159.349 23.3327 158.841 23.336 158.333L25.0002 159.998C22.2224 159.979 19.4446 159.961 16.6668 159.943C11.3615 160.024 6.66646 155.258 6.80422 150C6.85328 141.667 6.89753 133.333 6.934 125C6.84555 119.809 11.5058 115.194 16.6668 115.318C19.4446 115.327 22.2224 115.335 25.0002 115.342L23.6754 116.667C23.6759 116.461 23.6774 116.256 23.68 116.051C23.7674 108.586 25.2546 101.122 28.0717 94.2016C30.6598 87.8251 34.3641 81.907 38.9582 76.7833C41.6061 73.7741 44.422 71.1759 47.2156 69C51.1427 65.9377 55.0188 63.7152 58.3444 62.171C66.1497 58.4307 75.9659 56.6649 83.3335 56.8155C83.5102 56.8168 83.6855 56.8181 83.8593 56.8194C85.0436 56.8281 86.1619 56.8364 87.1961 56.8435C88.6862 56.8367 90.1765 56.8297 91.6668 56.8226L90.156 58.3334C90.1393 54.8057 90.122 51.2777 90.1044 47.7501L90.8965 49.1094C90.1906 48.7137 89.512 48.2695 88.8667 47.7815C88.5415 47.513 88.2242 47.231 87.913 46.9333C85.0628 44.1596 82.0907 39.8808 82.0174 33.3334C82.0193 31.2386 82.3846 28.9379 83.3285 26.6105C84.9764 22.5096 88.6316 18.1429 94.4845 16.2338C96.8931 15.4738 98.6593 15.4179 100 15.451C100.754 15.4764 101.384 15.5471 101.962 15.6357C102.438 15.7092 102.879 15.796 103.323 15.8964C104.839 16.2443 106.431 16.6799 108.193 17.5175C110.442 18.6067 113.116 20.4072 115.206 23.8782C117.217 27.2885 117.78 30.6161 117.769 33.3334C117.603 39.5268 115.358 42.7929 113.602 45.1058C112.809 46.0852 111.992 46.9002 111.073 47.6358C110.48 48.1097 109.8 48.5801 109.048 49.0107L109.782 47.7501C109.799 50.9501 109.735 54.7602 109.655 57.7869C109.65 57.9594 109.646 58.1419 109.642 58.3334L108.333 57.0245C110.406 57.0632 113.541 57.0431 116.667 56.9977C118.317 56.9739 119.943 57.0135 121.435 57.0991C123.184 57.1985 125.567 57.4622 128.319 58.004C131.172 58.5635 134.426 59.4296 137.808 60.6608C146.334 63.8761 150.284 66.8863 153.418 69.162C154.303 69.8331 155.11 70.4813 155.901 71.1482C158.404 73.2493 161.305 76.1149 163.876 79.3282C166.975 83.1575 169.551 87.48 171.206 90.9092C174.962 98.946 176.867 107.825 176.8 116.667L175 114.867C175.972 114.874 176.944 114.88 177.916 114.887C179.769 114.899 181.593 114.933 183.333 114.987C186.834 115.055 189.652 117.112 190.959 119.196C193.089 122.699 192.121 125.086 191.811 125C191.343 125.039 191.286 122.873 189.189 120.548C187.902 119.139 185.745 117.951 183.333 118.057C181.593 118.111 179.769 118.145 177.916 118.158C176.944 118.164 175.972 118.171 175 118.177L173.478 118.165L173.49 116.667C173.441 107.973 171.384 99.3291 167.502 91.5885C162.281 81.1175 153.753 72.3585 143.463 66.8386C136.276 62.9623 128.242 60.6818 120.082 60.188C119.237 60.1361 118.406 60.1031 117.56 60.0881C117.263 60.0879 116.965 60.0899 116.667 60.0943C113.828 60.1346 111.005 60.1731 108.333 60.2066L106.446 60.1916L106.46 58.3334C106.414 54.6384 106.378 51.2318 106.359 48.4686C106.358 48.2252 106.356 47.9858 106.355 47.7501L106.365 46.5817L107.358 46.029C110.204 44.3665 111.811 42.3674 112.899 40.5455C113.686 39.195 114.187 37.881 114.483 36.5077C114.64 35.7701 114.798 34.7449 114.804 33.4989C114.805 33.4442 114.805 33.389 114.804 33.3334C115.286 28.2687 110.015 19.4421 101.862 18.6294C101.261 18.5455 100.641 18.4957 100 18.4857C96.9655 18.4123 93.6082 19.4017 90.9794 21.3285C86.2477 24.6311 84.6918 30.2932 84.7775 32.9056C84.7753 33.0471 84.775 33.1898 84.7766 33.3334C84.7263 37.9572 87.2573 43.0563 91.0827 45.718C91.4974 46.0186 91.9218 46.2934 92.3514 46.542L93.0618 46.952L93.0554 47.7501C93.0199 52.0244 92.9976 55.6964 93.0584 57.8916C93.0626 58.0399 93.0664 58.1871 93.0699 58.3334L93.0587 59.7476L91.6668 59.7365C89.0148 59.8008 86.6536 59.7737 83.3335 59.73C83.1882 59.7281 83.0412 59.7267 82.8923 59.7258C80.3564 59.7191 77.2201 59.8227 73.043 60.554C68.2267 61.4268 64.9143 62.5154 62.154 63.5473C58.2883 65.0479 55.441 66.43 51.6 69.0665C47.3382 72.0118 43.3793 75.7209 40.558 78.8947C39.2645 80.3341 37.8778 82.0666 36.5613 83.9558C34.8125 86.4547 33.1993 89.2347 31.8958 91.8593C30.8214 94.0186 30.009 95.8489 29.3491 97.4941C29.144 98.0067 28.9542 98.5028 28.7783 98.987C28.1855 100.824 27.687 102.691 27.2849 104.581C27.2319 104.891 27.1794 105.216 27.1282 105.554C26.8716 107.254 26.6224 109.358 26.4543 111.959C26.3499 113.595 26.3023 115.138 26.3008 116.667L26.2904 117.978L25.0002 117.967C22.6283 117.966 20.3413 117.938 17.98 117.909C17.5451 117.904 17.1077 117.899 16.6668 117.894C14.4276 117.844 11.9682 118.978 10.5641 121.284C9.92363 122.331 9.52908 123.64 9.54961 125C9.56161 126.16 9.57533 127.344 9.589 128.523C9.63707 132.671 9.68438 136.766 9.65431 139.612C9.64304 140.678 9.59285 141.595 9.54292 142.502C9.54261 142.506 9.54231 142.51 9.542 142.514C9.53861 142.575 9.5353 142.637 9.53193 142.699C9.54536 145.133 9.55927 147.566 9.5736 150C9.51184 153.767 12.9477 157.132 16.6668 157.013C16.8028 157.012 16.9389 157.011 17.0749 157.01C17.6754 156.997 18.2823 156.985 18.8838 156.972C21.1001 156.926 23.2691 156.881 25.0002 156.825L26.5204 156.837L26.5085 158.333C26.5267 158.898 26.5459 159.415 26.5666 159.873C26.6245 161.15 26.6671 163.649 26.7048 166.667C26.7237 168.246 27.0023 169.969 27.6072 171.618C28.6559 174.577 30.8236 177.152 32.9879 178.625C34.2448 179.499 35.5216 180.212 36.9267 180.743C38.2373 181.236 39.6683 181.567 41.2533 181.599C41.3889 181.601 41.5267 181.602 41.6668 181.6C42.42 181.591 43.221 181.573 44.0661 181.554C44.9635 181.533 45.9123 181.512 46.9056 181.499C47.8286 181.487 49.884 181.515 52.5197 181.551C54.1485 181.573 55.9992 181.598 57.9416 181.619C63.0757 181.586 68.2107 181.555 73.3448 181.527C74.4159 181.481 75.3453 181.423 76.081 181.347C76.6088 181.293 77.0583 181.228 77.52 181.162C78.1481 181.072 78.7982 180.978 79.694 180.904C80.3941 180.846 81.2199 180.823 81.7744 180.847C82.0326 180.858 82.2309 180.88 82.4109 180.899C82.6172 180.921 82.8012 180.94 83.0259 180.94C83.188 180.939 83.3566 180.924 83.564 180.905C83.8952 180.875 84.326 180.836 84.9814 180.835C87.4205 180.829 90.1929 180.842 92.9088 180.854C95.9289 180.868 98.8808 180.881 101.233 180.869C103.867 180.856 107.622 180.914 111.382 180.972C114.006 181.012 116.633 181.052 118.887 181.068C121.096 181.084 123.396 181.052 125.623 181.021C128.296 180.984 130.868 180.948 133.053 180.998C133.495 181.008 134.044 181.071 134.732 181.149C135.22 181.205 135.782 181.268 136.421 181.327C139.202 181.327 141.985 181.329 144.766 181.334C144.864 181.325 144.965 181.317 145.067 181.308C145.068 181.308 145.07 181.308 145.071 181.307C147.356 181.108 150.483 180.836 154.875 180.998C155.992 181.04 156.694 181.116 157.328 181.185C157.665 181.221 157.983 181.256 158.333 181.282C158.596 181.303 158.876 181.313 159.204 181.3C160.018 181.268 160.974 181.103 161.971 180.803C163.376 180.385 164.849 179.696 166.249 178.864C166.345 178.807 166.448 178.745 166.554 178.679C167.56 178.059 168.954 176.961 170.129 175.624C172.09 173.088 173.178 169.902 173.196 166.667C173.213 164.346 173.231 162.026 173.249 159.706C173.253 159.248 173.257 158.791 173.26 158.333L173.274 156.58L175 156.594C177.778 156.616 180.556 156.64 183.333 156.664C186.863 156.79 190.157 153.598 190.113 150C190.134 147.711 190.155 145.421 190.176 143.132C190.22 138.324 190.41 133.712 190.713 130.311C191.017 126.911 191.408 125 191.811 125C192.215 125 192.606 126.911 192.91 130.311C193.213 133.712 193.403 138.323 193.447 143.132C193.468 145.421 193.489 147.711 193.51 150C193.665 155.426 188.829 160.366 183.333 160.292C182.141 160.303 180.948 160.313 179.756 160.323C179.345 160.331 178.932 160.339 178.521 160.347C177.318 160.369 176.149 160.4 175 160.437L177.104 158.333C177.16 160.103 177.229 161.823 177.298 163.545C177.324 164.197 177.35 164.85 177.376 165.505ZM155.706 112.191C155.26 108.876 153.57 102.661 151.939 99.505C151.911 99.4464 151.883 99.3878 151.855 99.3294C151.491 98.5725 151.122 97.871 150.659 97.0634C149.51 95.1834 148.087 92.4651 143.657 88.0024C142.325 86.7532 140.907 85.5944 139.418 84.5378C132.827 79.8395 124.781 77.248 116.667 77.2236C105.556 77.1649 94.4446 77.0755 83.3335 76.9751C82.1875 76.9643 81.0537 77.0015 79.9154 77.0874C79.6651 77.1098 79.4132 77.1346 79.1556 77.1626C74.1683 77.6181 68.2574 79.6668 64.8213 81.4891C60.4133 83.7459 57.7697 85.9159 55.7049 87.7607C47.8038 95.1059 43.0801 105.797 43.0688 116.667C43.0356 122.018 43.0086 127.368 42.9901 132.719C42.9894 132.924 42.9887 133.129 42.988 133.333L43.0026 134.64L41.6668 134.655C36.6776 134.638 31.6877 134.629 26.6985 134.629C26.1324 134.629 25.5663 134.629 25.0002 134.629L26.2959 133.333C26.2968 136.111 26.2996 138.889 26.3044 141.667L25.0002 140.362C26.4396 140.36 27.8791 140.357 29.3184 140.354C32.1039 140.311 34.7521 140.261 37.2079 140.215C38.7774 140.185 40.2686 140.157 41.6668 140.134L43.1827 140.117L43.2 141.667C43.2283 143.343 43.2502 144.885 43.2605 146.269C43.306 152.383 43.2342 159.318 43.1808 164.468C43.1728 165.244 43.1652 165.981 43.1584 166.667L41.6668 165.175C41.7249 165.176 41.7826 165.176 41.84 165.177C45.9304 165.15 50.0217 165.122 54.1121 165.093C54.3852 165.109 54.6604 165.126 54.9402 165.143C58.4311 165.358 62.7227 165.355 69.4779 165.351C72.4196 165.349 75.8292 165.347 79.843 165.363C82.4294 165.373 83.7581 165.458 84.8437 165.527C85.163 165.548 85.4626 165.567 85.7657 165.582C86.8048 165.635 87.9001 165.578 89.1939 165.511C90.8725 165.423 92.8864 165.318 95.5468 165.413C104.024 165.716 107.759 165.51 110.585 165.355C111.414 165.31 112.165 165.268 112.934 165.246C115.428 165.171 118.981 165.245 121.667 165.346C123.796 165.426 128.057 165.346 131.288 165.246C132.509 165.207 134.162 165.206 136.107 165.206C138.121 165.205 140.451 165.204 142.943 165.161C149.242 165.053 152.59 165.001 155.281 164.959C156.048 164.947 156.762 164.936 157.476 164.924C157.754 164.92 158.04 164.916 158.333 164.911L156.578 166.667C156.548 164.578 156.522 162.12 156.496 159.635C156.46 156.243 156.424 152.8 156.376 150.181C156.397 147.343 156.421 144.505 156.445 141.667L156.425 139.8L158.333 139.779C162.284 139.813 166.235 139.85 170.185 139.887C171.849 139.902 173.481 139.952 175 140.034L173.367 141.667C173.456 140.002 173.583 138.472 173.742 137.183C174.047 134.718 174.444 133.334 174.855 133.333C175.267 133.333 175.664 134.718 175.969 137.183C176.128 138.472 176.255 140.002 176.344 141.667L176.329 143.025L175 143.011C173.481 143.092 171.849 143.142 170.185 143.158C166.235 143.195 162.284 143.231 158.333 143.266L159.933 141.667C159.959 144.741 159.985 147.816 160.007 150.89C160.046 156.149 160.078 161.408 160.096 166.667L160.076 168.449L158.333 168.43C155.035 168.441 151.736 168.448 148.438 168.448C142.451 168.448 136.465 168.438 130.478 168.42C129.862 168.419 129.246 168.417 128.629 168.415C123.6 168.516 118.581 168.608 115.044 168.641C112.124 168.668 109.996 168.614 108.172 168.568C106.918 168.536 105.808 168.508 104.684 168.512C104.081 168.515 103.257 168.521 102.263 168.528C98.2059 168.559 91.3148 168.611 85.0281 168.512C82.2386 168.468 78.998 168.382 75.9042 168.299C71.4805 168.181 67.3554 168.071 65.2728 168.105C61.6158 168.164 57.4218 168.114 53.716 168.069C50.1812 168.027 47.0897 167.99 45.3314 168.058C44.0833 168.107 42.9443 168.115 41.6668 168.103L40.2146 168.087L40.2305 166.667C40.2386 165.794 40.256 164.856 40.2761 163.775C40.3104 161.928 40.3523 159.66 40.3692 156.579C40.3887 153.021 40.4461 150.504 40.4949 148.365C40.5496 145.972 40.5934 144.05 40.5614 141.667L41.6668 142.772C41.0515 142.78 40.4054 142.794 39.7125 142.813C35.9619 142.919 32.0419 142.986 28.9547 142.953C27.7554 142.94 26.4088 142.941 25.0002 142.944L23.7093 142.929L23.7234 141.667C23.7229 141.424 23.7223 141.179 23.7218 140.933C23.7166 138.717 23.7113 136.387 23.7492 134.259C23.7549 133.941 23.7622 133.633 23.7707 133.333L23.7846 132.09L25.0002 132.104C26.3486 132.142 27.5099 132.206 28.5595 132.264C28.9595 132.286 29.3436 132.308 29.7154 132.326C31.1119 132.325 32.5085 132.324 33.9051 132.321C34.1312 132.308 34.3689 132.294 34.617 132.279C35.8622 132.206 37.393 132.115 39.2882 132.07C40.1049 132.051 40.8943 132.04 41.6668 132.035L40.3686 133.333C40.3566 131.268 40.3896 129.324 40.4241 127.304C40.4611 125.142 40.4996 122.892 40.4858 120.314C40.4797 119.177 40.4639 117.937 40.4447 116.667C40.4342 115.949 40.4406 115.225 40.4648 114.507C40.5572 111.471 41.0334 108.487 41.5653 106.467C41.7608 105.713 41.9889 105.072 42.2248 104.452C42.2259 104.45 42.227 104.447 42.2282 104.444C42.2442 104.402 42.2603 104.36 42.2765 104.318C43.6978 99.4511 45.9984 94.8389 49.0303 90.7608C49.2858 90.4017 49.5498 90.043 49.817 89.6916C51.1193 87.9703 52.5378 86.4161 53.4743 85.4098C54.4752 84.3103 57.2534 81.7554 60.6156 79.6469C62.8028 78.2508 65.2086 77.0385 67.2318 76.1841C68.4157 75.6811 69.5848 75.3295 70.7982 75.0195C71.93 74.7314 73.0985 74.4799 74.3771 74.1978C75.017 74.0569 75.7048 73.9056 76.4501 73.7635C77.105 73.6387 77.7951 73.5225 78.5293 73.4285C79.2078 73.3421 80.7342 73.2145 82.6839 73.2223C82.8952 73.2231 83.1119 73.2254 83.3335 73.2294C84.3319 73.2483 85.4268 73.2683 86.566 73.2853C90.2149 73.2531 93.8644 73.2222 97.5133 73.1934C98.2745 73.1481 98.935 73.0892 99.4579 73.0137C99.833 72.9595 100.152 72.8947 100.481 72.8284C100.927 72.7383 101.389 72.6451 102.026 72.5709C102.523 72.5128 103.11 72.4897 103.504 72.5138C103.688 72.525 103.829 72.5462 103.957 72.5654C104.103 72.5873 104.234 72.6068 104.394 72.6063C104.509 72.6058 104.629 72.5903 104.776 72.5715C105.012 72.5414 105.318 72.5027 105.783 72.5013C107.517 72.4961 109.487 72.5086 111.418 72.5208C113.287 72.5327 115.12 72.5442 116.667 72.5394C116.91 72.5386 117.147 72.5395 117.375 72.5416C119.35 72.5524 122.183 72.8227 124.945 73.4168C126.875 73.8231 128.771 74.3728 130.37 74.9174C131.938 75.448 133.555 76.0495 135.086 76.7239C136.923 77.5299 138.634 78.4428 139.996 79.3581C140.272 79.5431 140.586 79.8175 140.97 80.1681C141.243 80.4166 141.554 80.7058 141.908 81.029C143.598 82.228 145.201 83.5495 146.701 84.978C146.759 85.0221 146.82 85.0677 146.88 85.1135C146.881 85.1142 146.882 85.1149 146.883 85.1156C148.24 86.1482 150.111 87.6554 151.963 90.3981C152.43 91.0948 152.667 91.5718 152.878 92.0011C153.084 92.4235 153.263 92.8007 153.578 93.3192C153.935 93.9088 154.39 94.581 154.863 95.3343C155.528 96.3896 156.225 97.6078 156.732 98.914C156.766 99.0032 156.803 99.0993 156.842 99.1994C157.206 100.146 157.699 101.569 158.029 103.023C159.377 107.22 160.063 111.62 160.079 116.008C160.08 116.227 160.08 116.447 160.077 116.667C160.014 122.222 159.944 127.778 159.873 133.333L158.333 131.794C159.594 131.81 160.853 131.826 162.113 131.842C165.531 131.887 168.809 132.076 171.225 132.38C173.642 132.684 175 133.074 175 133.478C175 133.882 173.642 134.272 171.225 134.576C168.809 134.88 165.531 135.069 162.113 135.114C160.854 135.13 159.594 135.146 158.333 135.162L156.526 135.182L156.505 133.333C156.45 129.02 156.395 124.706 156.344 120.392C156.336 120.1 156.327 119.806 156.32 119.514C156.294 118.538 156.258 117.594 156.214 116.667C156.161 115.58 156.056 114.537 155.91 113.492C155.849 113.057 155.781 112.627 155.706 112.191Z" fill="black"/>
</svg>
