<svg width="39" height="40" viewBox="0 0 39 40" fill="none" xmlns="http://www.w3.org/2000/svg">
<path d="M34.0062 18.3334C34.3824 21.7861 33.5793 25.2659 31.7341 28.1784C29.8889 31.0909 27.116 33.2556 23.889 34.3028C20.6619 35.3501 17.1807 35.2149 14.04 33.9204C10.8992 32.6259 8.29353 30.2524 6.66794 27.2051C5.04235 24.1578 4.49763 20.6257 5.1268 17.212C5.75597 13.7983 7.52 10.7146 10.1177 8.48758C12.7154 6.26051 15.9856 5.02816 19.37 5.00095C22.7544 4.97374 26.043 6.15336 28.6744 8.33839L24.3637 12.3251C22.8188 11.2905 20.9996 10.7724 19.1563 10.8421C17.3129 10.9117 15.5358 11.5656 14.0692 12.714C12.6025 13.8624 11.5183 15.4488 10.9654 17.2553C10.4126 19.0618 10.4183 20.9997 10.9818 22.8028C11.5453 24.6058 12.6389 26.1854 14.1124 27.3247C15.5858 28.4639 17.3667 29.1067 19.2105 29.1649C21.0542 29.223 22.8702 28.6936 24.409 27.6494C25.9478 26.6052 27.1338 25.0975 27.8041 23.3334H21.1068V18.3334H34.0062Z" stroke="black" stroke-width="2" stroke-linecap="round" stroke-linejoin="round"/>
</svg>
