<svg width="55" height="55" viewBox="0 0 55 55" fill="none" xmlns="http://www.w3.org/2000/svg">
<path fill-rule="evenodd" clip-rule="evenodd" d="M47.5521 16.0417C47.5521 16.9909 46.7825 17.7604 45.8333 17.7604H9.16666C8.21743 17.7604 7.44791 16.9909 7.44791 16.0417C7.44791 15.0924 8.21743 14.3229 9.16666 14.3229H45.8333C46.7825 14.3229 47.5521 15.0924 47.5521 16.0417Z" fill="#1C352D"/>
<path d="M41.374 18.2355C40.7086 18.2742 39.4256 18.2584 38.7198 18.2497C38.7069 18.2496 38.6939 18.2495 38.681 18.2493C38.5135 18.2473 38.355 18.2467 38.1694 18.2461C37.7267 18.2447 37.1287 18.2429 35.8804 18.2182C35.5173 18.2191 35.154 18.2196 34.7908 18.2196C30.8687 18.2196 26.9466 18.1874 23.0245 18.1488C22.9749 18.149 22.9245 18.1492 22.8736 18.1495C21.8899 18.1535 20.6701 18.1584 19.9036 18.1443C18.9292 18.1263 18.2674 18.1096 17.7238 18.0953C14.8714 18.0669 12.019 18.0412 9.16666 18.0283C8.86335 18.0275 8.55934 17.956 8.28781 17.8201C7.62468 17.4964 7.17907 16.7786 7.18811 16.0417C7.18751 15.6517 7.30664 15.2605 7.52567 14.9372C7.88308 14.3993 8.51942 14.0578 9.16666 14.0624C9.50523 14.0619 9.84378 14.0611 10.1823 14.0603C10.7059 14.0518 11.2037 14.0418 11.6654 14.0326C12.3141 14.0195 12.8916 14.0079 13.3686 14.0042C14.5179 13.9951 15.8217 14.0094 16.7898 14.0201C16.9481 14.0218 17.0975 14.0235 17.2356 14.0249C18.0046 14.0196 18.7736 14.014 19.5426 14.0082C19.5939 14.0114 19.6456 14.0148 19.6982 14.0182C20.3545 14.0611 21.1612 14.0606 22.431 14.0598C22.984 14.0594 23.625 14.0591 24.3795 14.0622C24.8657 14.0642 25.1154 14.0812 25.3195 14.0951C25.3796 14.0991 25.4359 14.103 25.4928 14.106C25.6882 14.1166 25.8941 14.1052 26.1373 14.0917C26.4528 14.0742 26.8314 14.0532 27.3315 14.0722C28.925 14.1327 29.6272 14.0916 30.1584 14.0606C30.3142 14.0515 30.4554 14.0432 30.6 14.0387C31.0688 14.0238 31.7368 14.0385 32.2416 14.0587C32.6419 14.0747 33.4427 14.0588 34.0501 14.0387C34.2797 14.031 34.5903 14.0308 34.9561 14.0307C35.3347 14.0305 35.7726 14.0303 36.2412 14.0218C37.4252 14.0001 38.0544 13.9897 38.5603 13.9813C38.7045 13.9789 38.8388 13.9767 38.973 13.9744C39.3971 13.9673 39.9233 13.9614 40.4561 13.9554C41.0937 13.9483 41.7408 13.941 42.2332 13.9314C43.4332 13.941 44.6334 13.9527 45.8333 13.9646C45.9254 13.9654 46.0166 13.9721 46.1079 13.9849C46.9127 14.0875 47.4888 14.7267 47.632 15.236C47.7866 15.7561 47.6535 16.0469 47.581 16.0417C47.493 16.043 47.4464 15.7716 47.2255 15.4183C47.011 15.0665 46.5674 14.6923 46.022 14.6335C45.9593 14.626 45.8967 14.6226 45.8333 14.6234C44.589 14.6357 43.3444 14.6479 42.1 14.6577C40.4913 14.6704 38.8826 14.6791 37.274 14.6791C36.1486 14.6791 35.0233 14.6771 33.898 14.6736C33.7821 14.6733 33.6662 14.6729 33.5504 14.6725C32.605 14.6927 31.6615 14.7112 30.9967 14.7177C30.4478 14.7232 30.0476 14.7124 29.7049 14.7031C29.469 14.6967 29.2603 14.6911 29.0492 14.692C28.9358 14.6925 28.7809 14.6937 28.5941 14.6952C27.8314 14.7014 26.536 14.7118 25.3542 14.692C24.8298 14.6832 24.2206 14.6659 23.6391 14.6494C22.8075 14.6258 22.032 14.6037 21.6406 14.6105C20.9531 14.6224 20.1647 14.6123 19.4681 14.6034C18.8036 14.5949 18.2225 14.5875 17.892 14.6012C17.497 14.6176 17.1603 14.6109 16.6595 14.601C16.3123 14.5942 15.886 14.5858 15.3068 14.5824C14.638 14.5785 14.1649 14.5671 13.7627 14.5573C13.1967 14.5435 12.7709 14.5332 12.1362 14.5522C11.4311 14.5733 10.6943 14.5868 10.1139 14.5801C9.84961 14.5771 9.54723 14.5778 9.23263 14.5786C9.2107 14.5786 9.18871 14.5787 9.16666 14.5787C8.82682 14.5771 8.48288 14.7069 8.23024 14.9103C8.00948 15.0863 7.867 15.2821 7.77358 15.4711C7.74453 15.5303 7.72047 15.5893 7.70094 15.6479C7.66671 15.776 7.64964 15.9084 7.64985 16.0417C7.64999 16.141 7.65973 16.2401 7.6791 16.3371C7.68889 16.3734 7.7006 16.4109 7.7145 16.4496C7.7842 16.6422 7.90784 16.8674 8.12919 17.0775C8.42946 17.3584 8.79062 17.4992 9.16666 17.5078C9.24273 17.5091 9.31906 17.5105 9.39599 17.5119C9.80238 17.5193 10.2252 17.527 10.7099 17.5242C11.0405 17.5223 11.4168 17.5158 11.7899 17.5093C12.344 17.4997 12.8912 17.4902 13.2714 17.4962C13.4138 17.4985 13.5363 17.5085 13.6575 17.5185C13.658 17.5186 13.6585 17.5186 13.6591 17.5187C13.6673 17.5194 13.6755 17.52 13.6838 17.5207C14.6097 17.5131 15.5356 17.5046 16.4615 17.4958C16.5418 17.4932 16.6228 17.4906 16.7032 17.4881C17.0958 17.4759 17.4773 17.464 17.726 17.4471C17.9956 17.4288 18.6733 17.4182 19.3876 17.4069C19.8553 17.3996 20.3388 17.392 20.7336 17.3819C20.9643 17.3759 21.1833 17.3863 21.4085 17.3969C21.6187 17.4069 21.8344 17.4171 22.0703 17.4146C22.1884 17.4133 22.316 17.409 22.4522 17.4044C22.5721 17.4004 22.6989 17.3961 22.8316 17.3935C22.9549 17.3911 23.2295 17.3967 23.5816 17.4039C23.7992 17.4083 24.0465 17.4133 24.306 17.4174C24.9919 17.411 25.6779 17.4048 26.3639 17.3991C26.507 17.39 26.6311 17.3782 26.7294 17.3631C26.7999 17.3523 26.86 17.3393 26.9217 17.3261C27.0056 17.308 27.0924 17.2894 27.2121 17.2746C27.3057 17.263 27.416 17.2583 27.49 17.2631C27.5245 17.2654 27.551 17.2696 27.5751 17.2735C27.6026 17.2778 27.6272 17.2818 27.6573 17.2816C27.6789 17.2816 27.7014 17.2784 27.7291 17.2747C27.7734 17.2687 27.8309 17.2609 27.9185 17.2606C28.2444 17.2596 28.6148 17.2621 28.9776 17.2646C29.3811 17.2673 29.7755 17.2699 30.0897 17.2676C30.4417 17.265 30.9432 17.2765 31.4457 17.288C31.7961 17.2961 32.1472 17.3041 32.4483 17.3073C32.7434 17.3105 33.0506 17.3042 33.3482 17.2979C33.7054 17.2905 34.0489 17.2832 34.3409 17.2934C34.3999 17.2954 34.4732 17.3079 34.5652 17.3236C34.6304 17.3347 34.7054 17.3473 34.7908 17.359C35.1625 17.359 35.5342 17.3595 35.9058 17.3605C35.9189 17.3588 35.9324 17.3571 35.9459 17.3553C35.9461 17.3553 35.9463 17.3552 35.9465 17.3552C36.2518 17.3154 36.6695 17.2609 37.2563 17.2934C37.4055 17.3017 37.4994 17.3169 37.584 17.3307C37.6671 17.3441 37.7413 17.3562 37.85 17.3587C37.9735 17.3616 38.1193 17.3533 38.2782 17.3443C38.5013 17.3317 38.7505 17.3176 39.0006 17.3307C39.0177 17.3316 39.0361 17.3326 39.0552 17.3336C39.2365 17.3429 39.5048 17.3568 39.7718 17.3846C40.5641 17.392 41.3565 17.4007 42.1487 17.4102C43.3769 17.425 44.6053 17.4416 45.8333 17.4584C45.91 17.4597 45.9865 17.4548 46.0621 17.4439C46.5947 17.3734 47.0245 17.0017 47.2334 16.6548C47.4484 16.3064 47.4947 16.0404 47.581 16.0417C47.6523 16.0367 47.782 16.3208 47.6357 16.8313C47.4998 17.3312 46.9511 17.9638 46.1665 18.0898C46.0565 18.1088 45.945 18.119 45.8333 18.1202C44.8781 18.1333 43.9227 18.1463 42.9675 18.1583C42.9125 18.16 42.8574 18.1616 42.8025 18.1631C42.3941 18.1744 42.0151 18.1972 41.6359 18.22C41.5488 18.2252 41.4615 18.2304 41.374 18.2355Z" fill="black"/>
<path fill-rule="evenodd" clip-rule="evenodd" d="M47.5521 27.5C47.5521 28.4492 46.7825 29.2188 45.8333 29.2188H9.16666C8.21743 29.2188 7.44791 28.4492 7.44791 27.5C7.44791 26.5508 8.21743 25.7812 9.16666 25.7812H45.8333C46.7825 25.7812 47.5521 26.5508 47.5521 27.5Z" fill="#1C352D"/>
<path d="M41.374 29.6939C40.7086 29.7326 39.4256 29.7168 38.7198 29.7081C38.7069 29.7079 38.6939 29.7078 38.681 29.7077C38.5135 29.7056 38.355 29.7051 38.1694 29.7045C37.7267 29.7031 37.1287 29.7012 35.8804 29.6765C35.5172 29.6774 35.154 29.6779 34.7908 29.6779C30.8687 29.6779 26.9466 29.6457 23.0245 29.6072C22.9749 29.6074 22.9245 29.6076 22.8736 29.6078C21.8899 29.6118 20.6701 29.6167 19.9036 29.6026C18.9292 29.5846 18.2674 29.568 17.7238 29.5536C14.8714 29.5252 12.019 29.4996 9.16666 29.4866C8.86335 29.4859 8.55935 29.4144 8.28781 29.2785C7.62469 28.9548 7.17907 28.2369 7.18811 27.5C7.18751 27.11 7.30665 26.7188 7.52568 26.3956C7.88309 25.8576 8.51941 25.5161 9.16666 25.5208C9.50523 25.5202 9.84378 25.5195 10.1823 25.5186C10.7059 25.5102 11.2037 25.5002 11.6654 25.4909C12.3141 25.4779 12.8916 25.4663 13.3686 25.4625C14.5179 25.4534 15.8217 25.4678 16.7898 25.4784C16.9481 25.4802 17.0975 25.4818 17.2356 25.4833C18.0046 25.478 18.7736 25.4723 19.5426 25.4665C19.5939 25.4698 19.6456 25.4731 19.6982 25.4766C20.3545 25.5195 21.1612 25.5189 22.431 25.5181C22.984 25.5178 23.625 25.5174 24.3795 25.5205C24.8657 25.5225 25.1154 25.5395 25.3195 25.5534C25.3796 25.5575 25.4359 25.5613 25.4928 25.5644C25.6882 25.575 25.8941 25.5635 26.1373 25.55C26.4528 25.5325 26.8314 25.5115 27.3315 25.5305C28.925 25.591 29.6272 25.55 30.1584 25.5189C30.3142 25.5098 30.4554 25.5016 30.6 25.497C31.0688 25.4822 31.7367 25.4969 32.2416 25.517C32.6419 25.533 33.4427 25.5172 34.0501 25.497C34.2797 25.4894 34.5903 25.4892 34.9561 25.489C35.3347 25.4888 35.7726 25.4886 36.2412 25.4801C37.4252 25.4585 38.0544 25.448 38.5603 25.4396C38.7045 25.4372 38.8388 25.4351 38.973 25.4328C39.3971 25.4256 39.9233 25.4197 40.4561 25.4137C41.0937 25.4066 41.7408 25.3994 42.2331 25.3897C43.4332 25.3993 44.6334 25.4111 45.8333 25.423C45.9254 25.4237 46.0166 25.4304 46.1079 25.4433C46.9127 25.5458 47.4888 26.185 47.6319 26.6943C47.7866 27.2145 47.6535 27.5053 47.581 27.5C47.493 27.5013 47.4464 27.23 47.2255 26.8766C47.011 26.5248 46.5674 26.1506 46.022 26.0919C45.9593 26.0843 45.8967 26.081 45.8333 26.0817C44.589 26.094 43.3444 26.1062 42.1 26.116C40.4913 26.1287 38.8826 26.1375 37.274 26.1375C36.1486 26.1375 35.0233 26.1355 33.898 26.132C33.7821 26.1316 33.6662 26.1312 33.5504 26.1308C32.605 26.1511 31.6614 26.1695 30.9967 26.1761C30.4478 26.1815 30.0476 26.1707 29.7049 26.1614C29.469 26.1551 29.2603 26.1494 29.0492 26.1503C28.9358 26.1508 28.7809 26.1521 28.5941 26.1536C27.8314 26.1597 26.536 26.1701 25.3542 26.1503C24.8298 26.1416 24.2206 26.1243 23.6391 26.1077C22.8075 26.0841 22.032 26.0621 21.6406 26.0689C20.9531 26.0807 20.1647 26.0707 19.4681 26.0618C18.8036 26.0533 18.2225 26.0459 17.892 26.0596C17.497 26.076 17.1603 26.0693 16.6595 26.0594C16.3123 26.0525 15.886 26.0441 15.3068 26.0408C14.638 26.0369 14.1649 26.0254 13.7627 26.0156C13.1967 26.0019 12.7709 25.9915 12.1362 26.0106C11.4312 26.0317 10.6943 26.0451 10.1139 26.0385C9.84961 26.0354 9.54724 26.0362 9.23263 26.0369C9.2107 26.037 9.18871 26.037 9.16666 26.0371C8.82682 26.0354 8.48288 26.1653 8.23025 26.3687C8.00949 26.5447 7.867 26.7405 7.77358 26.9295C7.74453 26.9887 7.72048 27.0476 7.70094 27.1062C7.66672 27.2344 7.64964 27.3668 7.64985 27.5C7.64999 27.5994 7.65973 27.6984 7.6791 27.7954C7.68889 27.8318 7.70061 27.8692 7.7145 27.9079C7.78421 28.1006 7.90784 28.3258 8.12919 28.5358C8.42947 28.8167 8.79062 28.9575 9.16666 28.9661C9.24273 28.9674 9.31906 28.9688 9.39599 28.9702C9.80238 28.9776 10.2252 28.9853 10.7099 28.9825C11.0405 28.9807 11.4168 28.9741 11.7899 28.9676C12.344 28.958 12.8912 28.9486 13.2714 28.9546C13.4138 28.9568 13.5363 28.9669 13.6575 28.9769C13.658 28.9769 13.6585 28.977 13.6591 28.977C13.6673 28.9777 13.6755 28.9784 13.6838 28.9791C14.6097 28.9714 15.5356 28.963 16.4615 28.9541C16.5418 28.9515 16.6228 28.949 16.7032 28.9465C17.0958 28.9342 17.4773 28.9223 17.726 28.9055C17.9956 28.8872 18.6733 28.8765 19.3876 28.8653C19.8553 28.8579 20.3388 28.8504 20.7336 28.8402C20.9643 28.8343 21.1833 28.8446 21.4085 28.8553C21.6187 28.8652 21.8344 28.8754 22.0703 28.8729C22.1884 28.8717 22.316 28.8674 22.4522 28.8628C22.5721 28.8588 22.6989 28.8545 22.8316 28.8519C22.9549 28.8494 23.2295 28.8551 23.5816 28.8622C23.7992 28.8667 24.0465 28.8717 24.306 28.8758C24.9919 28.8693 25.6779 28.8632 26.3639 28.8574C26.507 28.8483 26.6311 28.8366 26.7294 28.8215C26.7999 28.8106 26.86 28.7977 26.9217 28.7844C27.0056 28.7664 27.0924 28.7478 27.2121 28.7329C27.3057 28.7213 27.416 28.7167 27.49 28.7215C27.5245 28.7237 27.551 28.728 27.5751 28.7318C27.6026 28.7362 27.6272 28.7401 27.6573 28.74C27.6789 28.7399 27.7014 28.7368 27.7291 28.733C27.7734 28.727 27.831 28.7193 27.9185 28.719C28.2444 28.718 28.6148 28.7204 28.9776 28.7229C29.3811 28.7256 29.7755 28.7283 30.0897 28.7259C30.4417 28.7234 30.9432 28.7349 31.4457 28.7464C31.7961 28.7544 32.1472 28.7624 32.4483 28.7657C32.7434 28.7689 33.0506 28.7625 33.3482 28.7563C33.7054 28.7488 34.0489 28.7416 34.3409 28.7517C34.3999 28.7538 34.4732 28.7663 34.5652 28.7819C34.6304 28.793 34.7054 28.8057 34.7908 28.8174C35.1625 28.8174 35.5342 28.8179 35.9058 28.8188C35.9189 28.8171 35.9324 28.8154 35.9459 28.8137C35.9461 28.8136 35.9463 28.8136 35.9465 28.8135C36.2518 28.7737 36.6695 28.7193 37.2563 28.7518C37.4055 28.76 37.4994 28.7753 37.584 28.789C37.6671 28.8025 37.7413 28.8145 37.85 28.8171C37.9735 28.8199 38.1193 28.8117 38.2782 28.8027C38.5013 28.79 38.7505 28.7759 39.0006 28.7891C39.0177 28.79 39.0361 28.7909 39.0552 28.7919C39.2364 28.8013 39.5048 28.8151 39.7718 28.843C40.5641 28.8504 41.3565 28.8591 42.1487 28.8686C43.3769 28.8833 44.6053 28.9 45.8333 28.9167C45.91 28.918 45.9865 28.9132 46.0621 28.9023C46.5947 28.8317 47.0245 28.46 47.2334 28.1131C47.4484 27.7647 47.4947 27.4987 47.581 27.5C47.6523 27.4951 47.782 27.7792 47.6357 28.2896C47.4998 28.7895 46.9511 29.4221 46.1665 29.5481C46.0565 29.5672 45.945 29.5773 45.8333 29.5786C44.8781 29.5916 43.9227 29.6046 42.9675 29.6166C42.9125 29.6183 42.8574 29.6199 42.8025 29.6215C42.3941 29.6328 42.0151 29.6555 41.6359 29.6783C41.5488 29.6835 41.4615 29.6888 41.374 29.6939Z" fill="black"/>
<path fill-rule="evenodd" clip-rule="evenodd" d="M47.5521 38.9583C47.5521 39.9076 46.7825 40.6771 45.8333 40.6771H9.16666C8.21743 40.6771 7.44791 39.9076 7.44791 38.9583C7.44791 38.0091 8.21743 37.2396 9.16666 37.2396H45.8333C46.7825 37.2396 47.5521 38.0091 47.5521 38.9583Z" fill="#1C352D"/>
<path d="M41.374 41.1522C40.7086 41.1909 39.4256 41.1751 38.7198 41.1664C38.7069 41.1663 38.6939 41.1661 38.681 41.166C38.5135 41.1639 38.355 41.1634 38.1694 41.1628C37.7267 41.1614 37.1287 41.1595 35.8804 41.1349C35.5172 41.1358 35.154 41.1363 34.7908 41.1363C30.8687 41.1363 26.9466 41.1041 23.0245 41.0655C22.9749 41.0657 22.9245 41.0659 22.8736 41.0661C21.8899 41.0701 20.6701 41.0751 19.9036 41.061C18.9292 41.043 18.2674 41.0263 17.7238 41.0119C14.8714 40.9835 12.019 40.9579 9.16666 40.945C8.86335 40.9442 8.55935 40.8727 8.28781 40.7368C7.62469 40.4131 7.17907 39.6953 7.18811 38.9583C7.18751 38.5684 7.30665 38.1772 7.52568 37.8539C7.88309 37.316 8.51941 36.9745 9.16666 36.9791C9.50523 36.9785 9.84378 36.9778 10.1823 36.977C10.7059 36.9685 11.2037 36.9585 11.6654 36.9492C12.3141 36.9362 12.8916 36.9246 13.3686 36.9209C14.5179 36.9118 15.8217 36.9261 16.7898 36.9368C16.9481 36.9385 17.0975 36.9402 17.2356 36.9416C18.0046 36.9363 18.7736 36.9307 19.5426 36.9249C19.5939 36.9281 19.6456 36.9315 19.6982 36.9349C20.3545 36.9778 21.1612 36.9773 22.431 36.9765C22.984 36.9761 23.625 36.9757 24.3795 36.9788C24.8657 36.9808 25.1154 36.9979 25.3195 37.0117C25.3796 37.0158 25.4359 37.0196 25.4928 37.0227C25.6882 37.0333 25.8941 37.0219 26.1373 37.0084C26.4528 36.9909 26.8314 36.9699 27.3315 36.9889C28.925 37.0494 29.6272 37.0083 30.1584 36.9773C30.3142 36.9681 30.4554 36.9599 30.6 36.9553C31.0688 36.9405 31.7367 36.9552 32.2416 36.9754C32.6419 36.9913 33.4427 36.9755 34.0501 36.9553C34.2797 36.9477 34.5903 36.9475 34.9561 36.9473C35.3347 36.9472 35.7726 36.947 36.2412 36.9384C37.4252 36.9168 38.0544 36.9064 38.5603 36.898C38.7045 36.8956 38.8388 36.8934 38.973 36.8911C39.3971 36.884 39.9233 36.8781 40.4561 36.8721C41.0937 36.865 41.7408 36.8577 42.2331 36.848C43.4332 36.8577 44.6334 36.8694 45.8333 36.8813C45.9254 36.8821 46.0166 36.8888 46.1079 36.9016C46.9127 37.0042 47.4888 37.6434 47.6319 38.1527C47.7866 38.6728 47.6535 38.9636 47.581 38.9583C47.493 38.9597 47.4464 38.6883 47.2255 38.335C47.011 37.9832 46.5674 37.609 46.022 37.5502C45.9593 37.5427 45.8967 37.5393 45.8333 37.5401C44.589 37.5524 43.3444 37.5646 42.1 37.5744C40.4913 37.5871 38.8826 37.5958 37.274 37.5958C36.1486 37.5958 35.0233 37.5938 33.898 37.5903C33.7821 37.5899 33.6662 37.5895 33.5504 37.5891C32.605 37.6094 31.6614 37.6279 30.9967 37.6344C30.4478 37.6399 30.0476 37.629 29.7049 37.6198C29.469 37.6134 29.2603 37.6078 29.0492 37.6087C28.9358 37.6092 28.7809 37.6104 28.5941 37.6119C27.8314 37.618 26.536 37.6285 25.3542 37.6087C24.8298 37.5999 24.2206 37.5826 23.6391 37.5661C22.8075 37.5425 22.032 37.5204 21.6406 37.5272C20.9531 37.5391 20.1647 37.529 19.4681 37.5201C18.8036 37.5116 18.2225 37.5042 17.892 37.5179C17.497 37.5343 17.1603 37.5276 16.6595 37.5177C16.3123 37.5109 15.886 37.5025 15.3068 37.4991C14.638 37.4952 14.1649 37.4837 13.7627 37.474C13.1967 37.4602 12.7709 37.4499 12.1362 37.4689C11.4312 37.49 10.6943 37.5035 10.1139 37.4968C9.84961 37.4938 9.54724 37.4945 9.23263 37.4953C9.2107 37.4953 9.18871 37.4954 9.16666 37.4954C8.82682 37.4937 8.48288 37.6236 8.23025 37.827C8.00949 38.003 7.867 38.1988 7.77358 38.3878C7.74453 38.447 7.72048 38.506 7.70094 38.5646C7.66672 38.6927 7.64964 38.8251 7.64985 38.9583C7.64999 39.0577 7.65973 39.1567 7.6791 39.2538C7.68889 39.2901 7.70061 39.3276 7.7145 39.3663C7.78421 39.5589 7.90784 39.7841 8.12919 39.9942C8.42947 40.2751 8.79062 40.4159 9.16666 40.4245C9.24273 40.4258 9.31906 40.4272 9.39599 40.4286C9.80238 40.4359 10.2252 40.4436 10.7099 40.4409C11.0405 40.439 11.4168 40.4325 11.7899 40.426C12.344 40.4164 12.8912 40.4069 13.2714 40.4129C13.4138 40.4152 13.5363 40.4252 13.6575 40.4352C13.658 40.4353 13.6585 40.4353 13.6591 40.4354C13.6673 40.4361 13.6755 40.4367 13.6838 40.4374C14.6097 40.4298 15.5356 40.4213 16.4615 40.4124C16.5418 40.4099 16.6228 40.4073 16.7032 40.4048C17.0958 40.3926 17.4773 40.3807 17.726 40.3638C17.9956 40.3455 18.6733 40.3349 19.3876 40.3236C19.8553 40.3163 20.3388 40.3087 20.7336 40.2985C20.9643 40.2926 21.1833 40.303 21.4085 40.3136C21.6187 40.3236 21.8344 40.3338 22.0703 40.3313C22.1884 40.33 22.316 40.3257 22.4522 40.3211C22.5721 40.3171 22.6989 40.3128 22.8316 40.3102C22.9549 40.3078 23.2295 40.3134 23.5816 40.3206C23.7992 40.325 24.0465 40.33 24.306 40.3341C24.9919 40.3277 25.6779 40.3215 26.3639 40.3158C26.507 40.3067 26.6311 40.2949 26.7294 40.2798C26.7999 40.269 26.86 40.256 26.9217 40.2428C27.0056 40.2247 27.0924 40.2061 27.2121 40.1912C27.3057 40.1796 27.416 40.175 27.49 40.1798C27.5245 40.1821 27.551 40.1863 27.5751 40.1901C27.6026 40.1945 27.6272 40.1984 27.6573 40.1983C27.6789 40.1982 27.7014 40.1951 27.7291 40.1914C27.7734 40.1854 27.831 40.1776 27.9185 40.1773C28.2444 40.1763 28.6148 40.1788 28.9776 40.1812C29.3811 40.184 29.7755 40.1866 30.0897 40.1843C30.4417 40.1817 30.9432 40.1932 31.4457 40.2047C31.7961 40.2128 32.1472 40.2207 32.4483 40.224C32.7434 40.2272 33.0506 40.2209 33.3482 40.2146C33.7054 40.2071 34.0489 40.1999 34.3409 40.21C34.3999 40.2121 34.4732 40.2246 34.5652 40.2403C34.6304 40.2514 34.7054 40.264 34.7908 40.2757C35.1625 40.2757 35.5342 40.2762 35.9058 40.2772C35.9189 40.2755 35.9324 40.2738 35.9459 40.272C35.9461 40.272 35.9463 40.2719 35.9465 40.2719C36.2518 40.2321 36.6695 40.1776 37.2563 40.2101C37.4055 40.2184 37.4994 40.2336 37.584 40.2473C37.6671 40.2608 37.7413 40.2729 37.85 40.2754C37.9735 40.2783 38.1193 40.27 38.2782 40.261C38.5013 40.2484 38.7505 40.2343 39.0006 40.2474C39.0177 40.2483 39.0361 40.2493 39.0552 40.2503C39.2364 40.2596 39.5048 40.2735 39.7718 40.3013C40.5641 40.3087 41.3565 40.3174 42.1487 40.3269C43.3769 40.3417 44.6053 40.3583 45.8333 40.3751C45.91 40.3763 45.9865 40.3715 46.0621 40.3606C46.5947 40.29 47.0245 39.9184 47.2334 39.5715C47.4484 39.2231 47.4947 38.9571 47.581 38.9583C47.6523 38.9534 47.782 39.2375 47.6357 39.748C47.4998 40.2479 46.9511 40.8805 46.1665 41.0065C46.0565 41.0255 45.945 41.0357 45.8333 41.0369C44.8781 41.05 43.9227 41.0629 42.9675 41.075C42.9125 41.0767 42.8574 41.0783 42.8025 41.0798C42.3941 41.0911 42.0151 41.1139 41.6359 41.1366C41.5488 41.1419 41.4615 41.1471 41.374 41.1522Z" fill="#1C352D"/>
</svg>
