<svg width="30" height="30" viewBox="0 0 30 30" fill="none" xmlns="http://www.w3.org/2000/svg">
<path d="M8.75 3.125C6.99086 3.3317 5.78034 3.7686 4.86405 4.69204C3.125 6.44469 3.125 9.26553 3.125 14.9073C3.125 20.5489 3.125 23.3698 4.86405 25.1224C6.60311 26.875 9.40207 26.875 15 26.875C20.5979 26.875 23.3969 26.875 25.136 25.1224C26.875 23.3698 26.875 20.5489 26.875 14.9073C26.875 9.26553 26.875 6.44469 25.136 4.69204C24.2196 3.7686 23.0091 3.3317 21.25 3.125" stroke="black" stroke-width="1.5" stroke-linecap="round" stroke-linejoin="round"/>
<path d="M11.875 10C12.4894 10.6321 14.1247 13.125 15 13.125M15 13.125C15.8753 13.125 17.5106 10.6321 18.125 10M15 13.125V3.125" stroke="black" stroke-width="1.5" stroke-linecap="round" stroke-linejoin="round"/>
<path d="M26.875 16.875H20.7179C19.6653 16.875 18.8383 17.7545 18.3744 18.684C17.8704 19.6939 16.8611 20.625 15 20.625C13.1389 20.625 12.1297 19.6939 11.6257 18.684C11.1618 17.7545 10.3347 16.875 9.28208 16.875H3.125" stroke="black" stroke-width="1.5" stroke-linejoin="round"/>
</svg>
