<svg width="50" height="60" viewBox="0 0 50 60" fill="none" xmlns="http://www.w3.org/2000/svg">
<path d="M34.7923 15.9502C34.1534 16.0277 32.9214 15.996 32.2437 15.9787C32.2313 15.9784 32.2188 15.9781 32.2064 15.9778C32.0456 15.9737 31.8934 15.9726 31.7152 15.9715C31.2901 15.9687 30.7159 15.9649 29.5173 15.9155C29.1686 15.9174 28.8198 15.9184 28.4711 15.9184C26.6196 15.9184 24.7681 15.9028 22.9167 15.8778C21.1622 15.8487 19.3994 16.3134 17.8373 17.184C17.7991 17.2067 17.7604 17.2301 17.7214 17.254C16.9634 17.7082 16.1141 18.4098 15.602 18.8771C15.1876 19.2475 14.8759 19.5666 14.6182 19.8437C14.4669 20.0069 14.3348 20.1562 14.2147 20.2965C12.4364 22.5328 11.3541 25.3394 11.0367 28.222C10.9716 28.8118 10.938 29.4058 10.9363 30C10.9353 30.3168 10.9434 30.6328 10.9606 30.949C11.0061 31.7863 11.1145 32.6199 11.2854 33.44C11.3988 33.9147 11.5309 34.3591 11.6679 34.7653C11.8604 35.336 12.0626 35.8311 12.2327 36.2372C12.637 37.2182 13.1822 38.2913 13.6649 39.0423C13.7428 39.1653 13.8185 39.2806 13.8898 39.3859C14.0988 39.671 14.3184 39.9476 14.5482 40.2146C14.7793 40.4832 15.0205 40.7418 15.2714 40.9895C15.2998 41.0276 15.3284 41.0659 15.3576 41.1048C15.7257 41.5859 16.2724 42.1062 17.2474 42.7465C17.6733 43.0221 18.1841 43.3163 18.8138 43.6015C19.22 43.7835 19.4243 43.8897 19.5924 43.9787C19.642 44.0045 19.6886 44.0284 19.7366 44.0507C19.9012 44.1272 20.0904 44.1613 20.313 44.1931C20.6029 44.2339 20.9464 44.2727 21.3917 44.3808C22.0318 44.5341 22.5296 44.5654 22.9167 44.5588C23.412 44.5497 23.7423 44.5095 24.0229 44.4753C24.1725 44.4571 24.3081 44.4406 24.447 44.4315C24.8972 44.4019 25.5385 44.4312 26.0233 44.4715C26.4076 44.5035 27.1766 44.4718 27.7598 44.4315C27.9803 44.4163 28.2785 44.4159 28.6298 44.4155C28.9933 44.4151 29.4138 44.4148 29.8637 44.3977C31.0006 44.3545 31.6048 44.3335 32.0905 44.3168C32.229 44.312 32.358 44.3076 32.4869 44.3031C32.894 44.2887 33.3993 44.2769 33.9109 44.265C34.5231 44.2507 35.1445 44.2362 35.6173 44.2169C36.8427 44.2374 38.0682 44.2627 39.2934 44.2879C39.9228 44.3011 40.5267 44.3749 40.9717 44.4967C41.4167 44.6186 41.6666 44.7775 41.6667 44.9421C41.6667 45.1068 41.4167 45.2657 40.9717 45.3876C40.5267 45.5093 39.9228 45.5833 39.2934 45.5964C38.0255 45.6226 36.7574 45.6487 35.4894 45.6696C33.9447 45.6949 32.4 45.7124 30.8554 45.7124C29.7749 45.7124 28.6943 45.7085 27.6137 45.7014C27.5025 45.7007 27.3912 45.6999 27.28 45.6991C26.3722 45.7397 25.4662 45.7765 24.8279 45.7897C24.3008 45.8005 23.9166 45.7789 23.5875 45.7604C23.361 45.7476 23.1606 45.7364 22.9579 45.7382C22.9447 45.7383 22.931 45.7384 22.9167 45.7386C22.805 45.7397 22.6617 45.7404 22.4927 45.7366C21.71 45.7301 20.3667 45.5627 19.2345 45.1181C18.7314 44.9278 18.17 44.6529 17.6619 44.3513C16.9323 43.9227 16.3171 43.4404 15.9946 43.216C15.4239 42.8243 14.8403 42.2834 14.3693 41.7695C14.0954 41.4725 13.8569 41.187 13.6619 40.9532C13.5363 40.8028 13.4285 40.674 13.3407 40.5786C13.0736 40.287 12.8847 40.0064 12.6269 39.5792C12.4493 39.2822 12.2384 38.914 11.9707 38.4054C11.6631 37.8171 11.4918 37.3793 11.3534 37.0068C11.1616 36.4806 11.033 36.0824 10.8048 35.4987C10.5521 34.8496 10.3507 34.1456 10.2531 33.5803C10.208 33.3226 10.1543 33.0291 10.1069 32.7218C10.0439 32.3153 9.99288 31.8849 9.97639 31.49C9.96273 31.1648 9.981 30.8945 10.0007 30.6568C10.0069 30.5827 10.0133 30.5115 10.019 30.4427C10.0152 30.2951 10.0132 30.1478 10.0128 30C10.0125 29.8897 10.0131 29.7795 10.0147 29.6694C10.0103 29.6277 10.0055 29.5836 10.0008 29.5376C9.97719 29.3069 9.95193 29.022 9.95915 28.6697C9.97126 28.1121 10.0467 27.6266 10.1456 27.1209C10.2232 26.7269 10.3154 26.3203 10.4183 25.8535C10.4884 25.5351 10.5696 25.1723 10.6625 24.8153C10.7994 24.2847 10.965 23.7669 11.1143 23.4207C11.1701 23.2909 11.2346 23.1859 11.2991 23.0833C11.2994 23.0829 11.2997 23.0824 11.3001 23.082C11.3044 23.075 11.3088 23.068 11.3132 23.061C11.6536 22.2115 12.0628 21.3865 12.5426 20.6009C12.5811 20.5309 12.6207 20.4605 12.6606 20.3909C12.8549 20.0511 13.0599 19.7287 13.1841 19.5102C13.251 19.3921 13.3841 19.196 13.5616 18.9632C13.741 18.7278 13.9651 18.4569 14.2082 18.1875C14.5242 17.8357 14.8724 17.4899 15.1646 17.2138C15.3353 17.0522 15.5218 16.9274 15.716 16.8045C15.8973 16.6899 16.0853 16.5769 16.2793 16.4365C16.3762 16.3664 16.4794 16.2866 16.5904 16.2038C16.6881 16.1308 16.7934 16.0546 16.9061 15.9802C17.0113 15.9109 17.2577 15.7764 17.5823 15.6225C17.783 15.5273 18.0133 15.4249 18.258 15.3242C18.8899 15.0265 19.5513 14.7836 20.2313 14.6044C20.3694 14.5517 20.4888 14.501 20.5818 14.4504C20.6485 14.4142 20.7043 14.3765 20.7622 14.3383C20.841 14.2864 20.9234 14.2332 21.0424 14.1832C21.1353 14.1442 21.2489 14.1177 21.3273 14.1165C21.3639 14.1159 21.3926 14.1206 21.4186 14.1249C21.4484 14.1298 21.475 14.1342 21.5062 14.1301C21.5287 14.1271 21.5514 14.1181 21.5793 14.1072C21.624 14.0899 21.6824 14.0675 21.774 14.0577C22.1148 14.0211 22.505 14.0041 22.8865 14.0083C22.8966 14.0084 22.9066 14.0085 22.9167 14.0087C23.2945 14.014 23.6624 14.0189 23.957 14.0144C24.295 14.0092 24.7766 14.0323 25.259 14.0553C25.5956 14.0713 25.9326 14.0873 26.2217 14.0939C26.5051 14.1003 26.8001 14.0875 27.0858 14.0751C27.4288 14.0601 27.7587 14.0457 28.039 14.0659C28.0957 14.07 28.1661 14.095 28.2544 14.1263C28.317 14.1485 28.3891 14.1739 28.4711 14.1973C28.8279 14.1973 29.1848 14.1983 29.5417 14.2002C29.5542 14.1968 29.5672 14.1933 29.5802 14.1898C29.5804 14.1897 29.5806 14.1896 29.5808 14.1896C29.8739 14.11 30.275 14.0011 30.8384 14.066C30.9817 14.0825 31.0719 14.113 31.1531 14.1405C31.2329 14.1675 31.3042 14.1916 31.4086 14.1966C31.5271 14.2024 31.6671 14.1858 31.8197 14.1678C32.0339 14.1426 32.2732 14.1143 32.5134 14.1406C32.5298 14.1424 32.5474 14.1444 32.5657 14.1464C32.7398 14.1651 32.9975 14.1927 33.2539 14.2484C34.0146 14.2633 34.7755 14.2807 35.5362 14.2997C36.8043 14.3313 38.0726 14.3675 39.3406 14.4036C39.9575 14.4213 40.5491 14.4972 40.9853 14.6185C41.4215 14.7401 41.6667 14.8963 41.6667 15.0579C41.6666 15.2194 41.4215 15.3755 40.9853 15.4971C40.5491 15.6185 39.9575 15.6943 39.3406 15.7121C38.3347 15.7407 37.3284 15.7694 36.3224 15.7958C36.2696 15.7992 36.2167 15.8024 36.164 15.8054C35.7718 15.8281 35.4079 15.8736 35.0438 15.9191C34.9601 15.9295 34.8763 15.94 34.7923 15.9502Z" fill="black"/>
<path d="M27.4448 32.7761C27.4093 33.0551 27.1236 33.5053 26.9409 33.7309C26.9377 33.7352 26.9344 33.7394 26.9312 33.7436C26.8886 33.798 26.8499 33.8504 26.8033 33.9111C26.752 33.9777 26.6913 34.0545 26.6024 34.1518C26.4981 34.2652 26.356 34.4084 26.1357 34.582C26.0278 34.687 25.9145 34.7874 25.7958 34.882C25.0066 35.5186 23.9599 35.8991 22.9167 35.8565C22.2781 35.8346 21.6536 35.6613 21.1057 35.3768C21.0868 35.3686 21.0678 35.3602 21.0486 35.3516C20.6754 35.1882 20.2526 34.91 20.0356 34.6858C19.7574 34.4034 19.6069 34.1847 19.4898 34.0045C19.4791 33.9906 19.4685 33.9766 19.458 33.9626C18.7344 32.9951 18.3635 31.8516 18.2597 30.7121C18.2383 30.475 18.2287 30.2375 18.2304 30C18.2313 29.8734 18.2355 29.7471 18.2428 29.6208C18.2623 29.2863 18.3052 28.9529 18.3723 28.6234C18.3975 28.4285 18.4269 28.2425 18.4613 28.0703C18.5095 27.8285 18.5679 27.6138 18.6336 27.443C18.7896 27.0296 19.0728 26.6055 19.3141 26.32C19.3532 26.2731 19.391 26.2292 19.4263 26.1892C19.4533 26.1524 19.4808 26.1159 19.5088 26.0798C19.6631 25.8803 19.8325 25.6902 20.017 25.513C20.0364 25.5044 20.0561 25.496 20.0762 25.4877C20.3273 25.3868 20.5653 25.1883 21.0022 24.9531C21.1927 24.8526 21.4223 24.748 21.7068 24.6649C21.8906 24.6122 21.995 24.6247 22.0777 24.6346C22.1022 24.6377 22.125 24.6407 22.1477 24.6425C22.2255 24.6485 22.2987 24.6125 22.3888 24.5731C22.5048 24.5223 22.6527 24.4646 22.8505 24.4991C22.8731 24.503 22.8951 24.507 22.9167 24.5108C23.4881 24.6216 23.739 24.6226 23.953 24.6114C24.0169 24.6095 24.0753 24.6093 24.1328 24.6177C24.3202 24.6435 24.5598 24.7697 24.7181 24.8935C24.8453 24.9889 25.1295 25.1127 25.3463 25.2183C25.4286 25.2574 25.5271 25.3293 25.6378 25.4196C25.7524 25.513 25.8797 25.626 26.0203 25.7433C26.1606 25.8604 26.2689 25.963 26.3578 26.0521C26.4939 26.1889 26.5845 26.293 26.6617 26.3849C26.6981 26.4284 26.7312 26.4693 26.7639 26.5106C26.8674 26.641 26.9842 26.8115 27.0915 26.9906C27.2205 27.2045 27.3355 27.4307 27.423 27.6035C27.5849 28.077 27.684 28.5654 27.7283 29.0544C27.7513 29.3058 27.6959 29.5542 27.5811 29.731C27.4662 29.9086 27.3056 30.0003 27.1412 30C26.9763 29.9997 26.8187 29.911 26.691 29.7679C26.5633 29.624 26.4747 29.4373 26.433 29.2394C26.3495 28.8399 26.2207 28.4541 26.0542 28.0922C25.8571 27.6637 25.6074 27.2691 25.3157 26.9205C25.3072 26.9104 25.2987 26.9003 25.2901 26.8902C25.0785 26.6413 24.841 26.419 24.5815 26.2333C24.5547 26.2142 24.5278 26.1954 24.5006 26.1771C24.2533 26.0658 24.0026 25.9941 23.8298 25.9479C23.6873 25.9094 23.5903 25.8626 23.5039 25.8244C23.4446 25.7984 23.3907 25.777 23.3339 25.7701C23.3034 25.7664 23.2615 25.763 23.2111 25.7605C23.1309 25.7566 23.0293 25.7554 22.9167 25.7588C22.7396 25.7635 22.5369 25.7815 22.3404 25.7993C22.1977 25.8115 22.0268 25.8253 21.8617 25.8549C21.6257 25.8955 21.4037 25.9706 21.3134 26.0429C21.1544 26.1682 20.9583 26.2905 20.7917 26.4172C20.6328 26.537 20.502 26.6581 20.4572 26.7514C20.4432 26.7805 20.428 26.8067 20.4111 26.8317C20.3636 26.9019 20.3026 26.9609 20.2247 27.0431C20.1519 27.1204 20.0636 27.2184 19.9666 27.3685C19.8553 27.542 19.7702 27.6636 19.6993 27.7696C19.6007 27.9189 19.5295 28.038 19.4995 28.2396C19.4668 28.4633 19.4342 28.691 19.3836 28.8657C19.3604 28.9452 19.344 29.0387 19.3299 29.1362C19.3112 29.2654 19.2968 29.4017 19.2709 29.5255C19.2495 29.6275 19.2129 29.7114 19.1817 29.7872C19.1719 29.8107 19.1628 29.8335 19.1548 29.8557C19.1538 29.9038 19.1535 29.9518 19.1539 30C19.1542 30.036 19.1549 30.0719 19.1559 30.1077C19.1614 30.1212 19.1674 30.1353 19.1736 30.1501C19.2052 30.224 19.2451 30.3131 19.2717 30.4232C19.314 30.5972 19.3156 30.7516 19.3242 30.9167C19.3311 31.0448 19.3425 31.1792 19.385 31.326C19.4139 31.4262 19.4586 31.5366 19.5066 31.6436C19.5777 31.8029 19.6565 31.9536 19.6917 32.0664C19.7048 32.1088 19.7017 32.1515 19.6992 32.1942C19.6992 32.1944 19.6992 32.1946 19.6991 32.1948C19.6989 32.1977 19.6988 32.2006 19.6986 32.2035C19.8327 32.4603 19.99 32.7023 20.1677 32.9236C20.186 32.9406 20.2046 32.9578 20.223 32.9746C20.2981 33.0429 20.3736 33.106 20.4393 33.1448C20.4526 33.1527 20.4655 33.1596 20.4778 33.1654C20.5573 33.2029 20.7049 33.3377 20.8722 33.4588C20.9812 33.5386 21.0979 33.6129 21.1992 33.6614C21.2583 33.6897 21.2964 33.741 21.338 33.7932C21.3767 33.8419 21.4186 33.8914 21.479 33.9198C21.5094 33.9341 21.5449 33.9438 21.5829 33.9533C21.6164 33.9617 21.6516 33.9698 21.687 33.981C21.7199 33.9914 21.7835 34.034 21.8688 34.0834C21.9215 34.1139 21.9825 34.1469 22.0488 34.1768C22.2343 34.2229 22.4219 34.2506 22.6085 34.26C22.6492 34.2464 22.6847 34.2258 22.7129 34.1977C22.7332 34.1775 22.7506 34.1526 22.7679 34.1271C22.7915 34.0923 22.8151 34.0561 22.8455 34.0273C22.8693 34.0048 22.8961 33.9958 22.9142 34.0055C22.9151 34.0059 22.9159 34.0064 22.9167 34.0069C22.924 34.0116 22.9298 34.0192 22.9352 34.026C22.9421 34.0348 22.9483 34.0425 22.9558 34.0422C22.9611 34.0419 22.9666 34.0356 22.9733 34.0279C22.984 34.0156 22.9976 33.9998 23.0189 33.9984C23.0984 33.9931 23.1889 33.9901 23.278 33.9819C23.3769 33.973 23.4739 33.9576 23.5483 33.9334C23.6315 33.9068 23.7574 33.8923 23.8854 33.8655C23.9745 33.8472 24.0641 33.8233 24.1373 33.7931C24.2092 33.7636 24.2738 33.7126 24.3338 33.661C24.4061 33.599 24.4716 33.5363 24.5458 33.5067C24.5608 33.5007 24.5914 33.5091 24.6302 33.5188C24.6577 33.5256 24.6895 33.533 24.7226 33.5365C24.8032 33.4722 24.8819 33.4047 24.9587 33.3341C24.959 33.3291 24.9593 33.324 24.9596 33.3188C24.9596 33.3187 24.9596 33.3186 24.9596 33.3185C24.9668 33.2008 24.9654 33.0486 25.1182 32.9699C25.1337 32.9619 25.1492 32.9568 25.1647 32.9537C25.1883 32.9488 25.2117 32.9483 25.2336 32.9476C25.2692 32.9465 25.3013 32.945 25.3244 32.9238C25.3506 32.8995 25.3628 32.8562 25.3749 32.8092C25.3921 32.743 25.4087 32.6699 25.4695 32.6252C25.4737 32.6222 25.4782 32.6189 25.4828 32.6154C25.5267 32.5825 25.5908 32.5326 25.6783 32.4932C25.8081 32.3006 25.9263 32.0965 26.031 31.8828C26.2056 31.5267 26.3429 31.144 26.4351 30.7456C26.4803 30.5521 26.5702 30.3691 26.6972 30.2279C26.8244 30.0873 26.9794 30.0003 27.1412 30C27.3025 29.9998 27.4602 30.0896 27.5751 30.2635C27.6898 30.4366 27.7479 30.6798 27.731 30.927C27.7035 31.3295 27.639 31.7333 27.5329 32.1305C27.5292 32.152 27.5253 32.1734 27.5211 32.1948C27.4897 32.3534 27.4774 32.5094 27.4589 32.6671C27.4547 32.7034 27.4501 32.7396 27.4448 32.7761Z" fill="black"/>
<path d="M28.3243 29.0498C28.4396 28.9723 28.662 29.004 28.7844 29.0213C28.7866 29.0216 28.7889 29.0219 28.7911 29.0222C28.8201 29.0263 28.8476 29.0274 28.8798 29.0285C28.9565 29.0313 29.0602 29.0351 29.2765 29.0845C29.3395 29.0826 29.4025 29.0816 29.4654 29.0816C30.1453 29.0816 30.8251 29.146 31.505 29.2231C31.5135 29.2227 31.5223 29.2223 31.5311 29.2219C31.7016 29.2139 31.9131 29.204 32.0459 29.2323C32.2148 29.2682 32.3295 29.3015 32.4238 29.3303C32.9637 29.3923 33.5037 29.4478 34.0437 29.4707C34.213 29.4779 34.3822 29.4818 34.5515 29.4818C34.7073 29.4818 34.8632 29.4793 35.0191 29.4747C35.1098 29.4579 35.1961 29.4378 35.2761 29.4193C35.3886 29.3932 35.4887 29.3701 35.5714 29.3625C35.7706 29.3443 35.9966 29.3731 36.1644 29.3944C36.1918 29.3979 36.2177 29.4012 36.2417 29.404C36.3749 29.3935 36.5082 29.3822 36.6415 29.3706C36.6504 29.377 36.6594 29.3837 36.6685 29.3906C36.7823 29.4764 36.9221 29.4753 37.1422 29.4737C37.2381 29.473 37.3492 29.4723 37.4799 29.4785C37.5642 29.4825 37.6075 29.5165 37.6429 29.5443C37.6533 29.5525 37.663 29.5601 37.6729 29.5663C37.7068 29.5874 37.7425 29.5646 37.7846 29.5376C37.8393 29.5026 37.905 29.4605 37.9916 29.4985C38.2679 29.6195 38.3896 29.5374 38.4816 29.4753C38.5086 29.4571 38.5331 29.4406 38.5582 29.4315C38.6395 29.4019 38.7552 29.4312 38.8427 29.4715C38.9121 29.5035 39.0509 29.4718 39.1562 29.4315C39.196 29.4163 39.2499 29.4159 39.3133 29.4155C39.3789 29.4151 39.4548 29.4148 39.536 29.3977C39.7412 29.3545 39.8503 29.3335 39.938 29.3168C39.963 29.312 39.9863 29.3076 40.0095 29.3031C40.083 29.2887 40.1743 29.2769 40.2666 29.265C40.3771 29.2507 40.4893 29.2362 40.5746 29.2169C40.7958 29.2374 41.0171 29.2627 41.2383 29.2879C41.3519 29.3011 41.4609 29.3749 41.5412 29.4967C41.6216 29.6186 41.6667 29.7775 41.6667 29.9421C41.6667 30.1068 41.6215 30.2657 41.5412 30.3876C41.4609 30.5093 41.3519 30.5833 41.2383 30.5964C41.0094 30.6226 40.7805 30.6487 40.5516 30.6696C40.2727 30.6949 39.9939 30.7124 39.715 30.7124C39.52 30.7124 39.3249 30.7085 39.1298 30.7014C39.1098 30.7007 39.0897 30.6999 39.0696 30.6991C38.9057 30.7397 38.7422 30.7765 38.6269 30.7897C38.5318 30.8005 38.4624 30.7789 38.403 30.7604C38.3621 30.7476 38.326 30.7364 38.2894 30.7382C38.2697 30.7391 38.2429 30.7416 38.2105 30.7446C38.0783 30.7569 37.8537 30.7777 37.6489 30.7382C37.558 30.7206 37.4524 30.686 37.3516 30.653C37.2075 30.6057 37.073 30.5617 37.0052 30.5752C36.886 30.599 36.7494 30.5789 36.6286 30.561C36.5134 30.5441 36.4127 30.5292 36.3554 30.5566C36.287 30.5894 36.2286 30.5761 36.1418 30.5563C36.0816 30.5426 36.0077 30.5258 35.9073 30.519C35.7914 30.5113 35.7094 30.4883 35.6397 30.4688C35.5416 30.4413 35.4677 30.4206 35.3577 30.4586C35.2355 30.5009 35.1078 30.5278 35.0072 30.5144C34.9614 30.5083 34.909 30.5098 34.8544 30.5114C34.7822 30.5134 34.7063 30.5155 34.637 30.5004C34.5798 30.4879 34.5326 30.4559 34.4908 30.4276C34.4778 30.4188 34.4653 30.4104 34.4532 30.403C34.4077 30.4034 34.3622 30.404 34.3167 30.4049C34.3093 30.4101 34.3015 30.4158 34.2935 30.4216C34.2529 30.4511 34.203 30.4873 34.1412 30.5054C34.0435 30.5339 33.9577 30.516 33.8673 30.4971C33.7968 30.4823 33.7235 30.4669 33.6395 30.4724C33.5822 30.4762 33.517 30.4893 33.4523 30.5022C33.3563 30.5214 33.2614 30.5404 33.1955 30.5283C33.1708 30.5238 33.1496 30.5037 33.1286 30.4838C33.1285 30.4836 33.1284 30.4835 33.1283 30.4834C33.1269 30.482 33.1255 30.4807 33.124 30.4794C32.9635 30.4947 32.803 30.5115 32.6425 30.5293C32.6286 30.5345 32.6146 30.5396 32.6007 30.5446C32.5326 30.569 32.4665 30.5928 32.4234 30.6266C32.3766 30.6632 32.2592 30.6845 32.1354 30.7069C32.0543 30.7216 31.9705 30.7368 31.902 30.7571C31.862 30.769 31.8241 30.7483 31.7851 30.7269C31.7486 30.707 31.7112 30.6866 31.6703 30.6917C31.6499 30.6942 31.6277 30.7028 31.6041 30.7119C31.5834 30.72 31.5614 30.7285 31.5384 30.7338C31.517 30.7386 31.4694 30.7274 31.4084 30.713C31.3707 30.7042 31.3278 30.6942 31.2828 30.6859C31.1639 30.6988 31.045 30.7112 30.9261 30.7227C30.9013 30.7408 30.8798 30.7643 30.8627 30.7946C30.8505 30.8162 30.8401 30.8422 30.8294 30.8687C30.8149 30.9047 30.7998 30.942 30.7791 30.9717C30.7629 30.9949 30.7437 31.0042 30.7309 30.9945C30.7249 30.99 30.7203 30.9816 30.7162 30.9739C30.7114 30.9651 30.7071 30.9573 30.7019 30.9575C30.6982 30.9577 30.6943 30.9639 30.6895 30.9714C30.6818 30.9835 30.6718 30.999 30.6566 30.9995C30.6001 31.0016 30.5359 30.9966 30.4731 30.9917C30.4031 30.9863 30.3348 30.981 30.2803 30.9856C30.2193 30.9908 30.1323 30.9677 30.0452 30.9447C29.9845 30.9287 29.9237 30.9127 29.8715 30.9061C29.8203 30.8997 29.767 30.9125 29.7155 30.9249C29.6536 30.9399 29.594 30.9543 29.5434 30.9341C29.5332 30.93 29.5205 30.905 29.5045 30.8737C29.4932 30.8515 29.4802 30.8261 29.4654 30.8027C29.401 30.8027 29.3366 30.8017 29.2721 30.7998C29.2699 30.8032 29.2675 30.8067 29.2652 30.8102C29.2652 30.8103 29.2651 30.8104 29.2651 30.8104C29.2122 30.89 29.1398 30.9989 29.038 30.934C29.0122 30.9175 28.9959 30.887 28.9813 30.8595C28.9668 30.8325 28.954 30.8084 28.9351 30.8034C28.9137 30.7976 28.8885 30.8142 28.8609 30.8322C28.8222 30.8574 28.779 30.8857 28.7357 30.8594C28.7327 30.8576 28.7296 30.8556 28.7262 30.8536C28.6948 30.8349 28.6483 30.8073 28.602 30.7516C28.4647 30.7367 28.3273 30.7193 28.19 30.7003C27.9611 30.6687 27.7321 30.6325 27.5032 30.5964C27.3919 30.5787 27.2851 30.5028 27.2063 30.3815C27.1276 30.2599 27.0833 30.1037 27.0833 29.9421C27.0834 29.7806 27.1276 29.6245 27.2063 29.5029C27.2851 29.3815 27.3919 29.3057 27.5032 29.2879C27.6848 29.2593 27.8665 29.2306 28.0481 29.2042C28.0576 29.2008 28.0672 29.1976 28.0767 29.1946C28.1475 29.1719 28.2132 29.1264 28.2789 29.0809C28.294 29.0705 28.3091 29.06 28.3243 29.0498Z" fill="black"/>
</svg>
