<svg width="30" height="30" viewBox="0 0 30 30" fill="none" xmlns="http://www.w3.org/2000/svg">
<path d="M15 11.25V2.5L12.5 5" stroke="black" stroke-width="1.5" stroke-linecap="round" stroke-linejoin="round"/>
<path d="M15 2.5L17.5 5" stroke="black" stroke-width="1.5" stroke-linecap="round" stroke-linejoin="round"/>
<path d="M2.47559 16.25H7.98809C8.46309 16.25 8.88809 16.5125 9.10059 16.9375L10.5631 19.8625C10.9881 20.7125 11.8506 21.25 12.8006 21.25H17.2131C18.1631 21.25 19.0256 20.7125 19.4506 19.8625L20.9131 16.9375C21.1256 16.5125 21.5631 16.25 22.0256 16.25H27.4756" stroke="black" stroke-width="1.5" stroke-linecap="round" stroke-linejoin="round"/>
<path d="M8.75 6.41235C4.325 7.06235 2.5 9.66235 2.5 14.9999V18.7499C2.5 24.9999 5 27.4999 11.25 27.4999H18.75C25 27.4999 27.5 24.9999 27.5 18.7499V14.9999C27.5 9.66235 25.675 7.06235 21.25 6.41235" stroke="black" stroke-width="1.5" stroke-linecap="round" stroke-linejoin="round"/>
</svg>
