<svg width="55" height="55" viewBox="0 0 55 55" fill="none" xmlns="http://www.w3.org/2000/svg">
<path fill-rule="evenodd" clip-rule="evenodd" d="M5.15625 13.75C5.15625 12.8008 5.92577 12.0312 6.875 12.0312H45.8333C46.7825 12.0312 47.5521 12.8008 47.5521 13.75C47.5521 14.6992 46.7825 15.4687 45.8333 15.4687H6.875C5.92577 15.4687 5.15625 14.6992 5.15625 13.75ZM5.15625 25.2083C5.15625 24.2591 5.92577 23.4896 6.875 23.4896H25.2083C26.1575 23.4896 26.9271 24.2591 26.9271 25.2083C26.9271 26.1575 26.1575 26.9271 25.2083 26.9271H6.875C5.92577 26.9271 5.15625 26.1575 5.15625 25.2083ZM33.1597 23.9931C33.831 23.3218 34.919 23.3218 35.5903 23.9931L40.1042 28.5067L44.6181 23.9931C45.2893 23.3218 46.3774 23.3218 47.0486 23.9931C47.7198 24.6643 47.7198 25.7524 47.0486 26.4236L42.5349 30.9375L47.0486 35.4514C47.7198 36.1226 47.7198 37.2107 47.0486 37.8819C46.3774 38.5532 45.2893 38.5532 44.6181 37.8819L40.1042 33.3683L35.5903 37.8819C34.919 38.5532 33.831 38.5532 33.1597 37.8819C32.4885 37.2107 32.4885 36.1226 33.1597 35.4514L37.6734 30.9375L33.1597 26.4236C32.4885 25.7524 32.4885 24.6643 33.1597 23.9931ZM5.15625 36.6667C5.15625 35.7175 5.92577 34.9479 6.875 34.9479H25.2083C26.1575 34.9479 26.9271 35.7175 26.9271 36.6667C26.9271 37.6159 26.1575 38.3854 25.2083 38.3854H6.875C5.92577 38.3854 5.15625 37.6159 5.15625 36.6667Z" fill="#1C352D"/>
<path d="M11.7244 11.5561C12.426 11.5174 13.7789 11.5332 14.5231 11.5419C14.5368 11.5421 14.5504 11.5422 14.5641 11.5423C14.7407 11.5444 14.9078 11.5449 15.1035 11.5455C15.5703 11.5469 16.201 11.5488 17.5172 11.5735C17.9002 11.5726 18.2832 11.5721 18.6661 11.5721C22.8019 11.5721 26.9377 11.6043 31.0735 11.6428C31.1258 11.6426 31.1789 11.6424 31.2326 11.6422C32.2699 11.6382 33.5562 11.6333 34.3644 11.6474C35.3919 11.6654 36.0898 11.682 36.663 11.6964C39.7197 11.7253 42.7766 11.7513 45.8333 11.764C46.0964 11.7647 46.3603 11.8182 46.6028 11.9215C47.3231 12.2192 47.8224 12.9721 47.8119 13.75C47.8127 14.1613 47.6797 14.5737 47.4378 14.9067C47.0756 15.4152 46.4589 15.7332 45.8333 15.729C45.4273 15.7296 45.0213 15.7304 44.6153 15.7314C44.0631 15.7398 43.5382 15.7498 43.0514 15.7591C42.3674 15.7721 41.7584 15.7837 41.2554 15.7875C40.0435 15.7966 38.6687 15.7822 37.6478 15.7716C37.4809 15.7698 37.3234 15.7682 37.1777 15.7667C36.3669 15.772 35.5559 15.7777 34.7451 15.7835C34.691 15.7802 34.6364 15.7769 34.581 15.7734C33.889 15.7305 33.0383 15.7311 31.6993 15.7319C31.1162 15.7322 30.4403 15.7326 29.6447 15.7295C29.132 15.7275 28.8686 15.7105 28.6534 15.6966C28.5901 15.6925 28.5308 15.6887 28.4707 15.6856C28.2647 15.675 28.0476 15.6865 27.7911 15.7C27.4584 15.7175 27.0592 15.7385 26.5318 15.7195C24.8515 15.659 24.1111 15.7 23.551 15.7311C23.3867 15.7402 23.2378 15.7484 23.0853 15.753C22.5909 15.7678 21.8866 15.7531 21.3543 15.733C20.9322 15.717 20.0877 15.7328 19.4472 15.753C19.2051 15.7606 18.8776 15.7608 18.4919 15.761C18.0927 15.7612 17.6309 15.7614 17.1368 15.7699C15.8883 15.7915 15.2247 15.802 14.6913 15.8104C14.5393 15.8128 14.3976 15.8149 14.2561 15.8172C13.809 15.8244 13.2541 15.8303 12.6923 15.8363C12.0199 15.8434 11.3376 15.8506 10.8184 15.8603C9.50391 15.8503 8.18934 15.838 6.875 15.8257C6.83718 15.8254 6.79969 15.8241 6.76222 15.8218C5.90608 15.7818 5.25943 15.129 5.09535 14.5967C4.91703 14.0528 5.0559 13.744 5.12732 13.75C5.21592 13.7483 5.25905 14.036 5.49747 14.4051C5.72825 14.7727 6.21704 15.1519 6.79731 15.1684C6.8231 15.1695 6.84892 15.1699 6.875 15.1696C8.23615 15.1569 9.59757 15.1441 10.9588 15.134C12.6551 15.1213 14.3515 15.1125 16.0477 15.1125C17.2344 15.1125 18.421 15.1145 19.6076 15.118C19.7298 15.1184 19.852 15.1188 19.9742 15.1192C20.971 15.0989 21.966 15.0805 22.667 15.0739C23.2458 15.0685 23.6678 15.0793 24.0292 15.0886C24.2779 15.0949 24.4979 15.1006 24.7206 15.0997C24.8401 15.0992 25.0035 15.0979 25.2005 15.0964C26.0048 15.0903 27.3707 15.0799 28.6169 15.0997C29.1698 15.1084 29.8122 15.1257 30.4254 15.1423C31.3023 15.1659 32.12 15.1879 32.5328 15.1811C33.2577 15.1693 34.089 15.1793 34.8236 15.1882C35.5243 15.1967 36.1371 15.2041 36.4856 15.1904C36.902 15.174 37.2572 15.1807 37.7852 15.1906C38.1514 15.1975 38.6008 15.2059 39.2116 15.2092C39.9168 15.2131 40.4157 15.2246 40.8398 15.2344C41.4366 15.2481 41.8857 15.2585 42.5549 15.2394C43.2984 15.2183 44.0754 15.2049 44.6874 15.2115C44.9661 15.2146 45.2849 15.2138 45.6167 15.2131C45.6884 15.2129 45.7607 15.2127 45.8333 15.2126C46.1521 15.2138 46.4704 15.1027 46.7145 14.925C46.9557 14.7503 47.112 14.5473 47.214 14.3499C47.2457 14.2881 47.272 14.2261 47.2933 14.1647C47.3313 14.03 47.3504 13.8905 47.3501 13.75C47.35 13.6453 47.3392 13.5408 47.3177 13.4387C47.3071 13.4005 47.2943 13.361 47.2793 13.3205C47.2036 13.1184 47.0679 12.8826 46.8255 12.6707C46.532 12.4172 46.1863 12.2928 45.8333 12.2862C45.7044 12.2843 45.5752 12.282 45.4444 12.2798C45.0159 12.2724 44.57 12.2647 44.0589 12.2675C43.7104 12.2693 43.3135 12.2759 42.9201 12.2824C42.3358 12.292 41.7588 12.3014 41.3579 12.2954C41.2077 12.2932 41.0786 12.2831 40.9508 12.2731C40.9502 12.2731 40.9497 12.273 40.9491 12.273C40.9404 12.2723 40.9317 12.2716 40.9231 12.2709C39.9467 12.2786 38.9703 12.287 37.994 12.2959C37.9094 12.2985 37.8239 12.301 37.7391 12.3035C37.3251 12.3158 36.9229 12.3277 36.6606 12.3445C36.3763 12.3628 35.6617 12.3735 34.9086 12.3847C34.4154 12.3921 33.9055 12.3996 33.4892 12.4098C33.2459 12.4157 33.015 12.4054 32.7775 12.3947C32.5559 12.3848 32.3284 12.3746 32.0796 12.3771C31.9551 12.3783 31.8205 12.3826 31.6769 12.3872C31.5505 12.3912 31.4168 12.3955 31.2769 12.3981C31.1469 12.4006 30.8573 12.3949 30.486 12.3878C30.2565 12.3833 29.9958 12.3783 29.7222 12.3742C28.9989 12.3807 28.2755 12.3868 27.5522 12.3926C27.4013 12.4017 27.2704 12.4134 27.1667 12.4285C27.0924 12.4394 27.029 12.4523 26.964 12.4656C26.8755 12.4836 26.7839 12.5022 26.6577 12.5171C26.5591 12.5287 26.4428 12.5333 26.3647 12.5285C26.3283 12.5263 26.3003 12.522 26.275 12.5182C26.2459 12.5138 26.22 12.5099 26.1883 12.51C26.1655 12.5101 26.1417 12.5132 26.1125 12.517C26.0659 12.523 26.0052 12.5307 25.9129 12.531C25.5692 12.532 25.1787 12.5296 24.7961 12.5271C24.3706 12.5244 23.9547 12.5217 23.6234 12.5241C23.2522 12.5267 22.7233 12.5151 22.1936 12.5036C21.824 12.4956 21.4538 12.4876 21.1363 12.4843C20.8251 12.4811 20.5011 12.4875 20.1874 12.4937C19.8107 12.5012 19.4485 12.5084 19.1406 12.4983C19.0784 12.4962 19.001 12.4837 18.9041 12.4681C18.8353 12.457 18.7562 12.4443 18.6661 12.4326C18.2743 12.4326 17.8823 12.4321 17.4905 12.4312C17.4767 12.4329 17.4624 12.4346 17.4482 12.4363C17.4479 12.4364 17.4477 12.4364 17.4475 12.4365C17.1256 12.4763 16.6852 12.5307 16.0664 12.4982C15.9091 12.49 15.81 12.4747 15.7208 12.461C15.6332 12.4475 15.5549 12.4355 15.4403 12.4329C15.3101 12.4301 15.1564 12.4383 14.9888 12.4473C14.7535 12.46 14.4907 12.4741 14.227 12.4609C14.209 12.46 14.1896 12.4591 14.1695 12.4581C13.9783 12.4487 13.6954 12.4349 13.4138 12.407C12.5783 12.3996 11.7428 12.3909 10.9074 12.3814C9.56332 12.3661 8.21897 12.3488 6.875 12.3314C6.83456 12.3307 6.79461 12.3318 6.75448 12.3345C6.18708 12.3654 5.71366 12.7431 5.48908 13.1056C5.25715 13.4698 5.21417 13.7516 5.12732 13.75C5.05704 13.7556 4.92187 13.454 5.0909 12.92C5.24695 12.3975 5.86314 11.75 6.69986 11.6825C6.75821 11.677 6.81628 11.674 6.875 11.6733C7.93122 11.6596 8.98775 11.646 10.0441 11.6334C10.102 11.6317 10.1601 11.6301 10.218 11.6285C10.6487 11.6172 11.0483 11.5945 11.4482 11.5717C11.5401 11.5665 11.6321 11.5612 11.7244 11.5561ZM8.21421 23.0145C8.58961 22.9758 9.31348 22.9916 9.71166 23.0003C9.71896 23.0004 9.72626 23.0005 9.73357 23.0007C9.82807 23.0027 9.91746 23.0033 10.0222 23.0039C10.2719 23.0052 10.6093 23.0071 11.3136 23.0318C11.5185 23.0309 11.7234 23.0304 11.9283 23.0304C14.1411 23.0304 16.3539 23.0626 18.5667 23.1011C18.5946 23.1009 18.6231 23.1007 18.6518 23.1005C19.2068 23.0965 19.895 23.0916 20.3274 23.1057C20.8772 23.1237 21.2506 23.1404 21.5572 23.1547C22.7742 23.1762 23.9913 23.1961 25.2083 23.2101C25.8382 23.2115 26.4534 23.5346 26.8141 24.0439C27.0567 24.3801 27.1891 24.7952 27.1869 25.2083C27.1865 25.4285 27.1497 25.6487 27.0772 25.8572C26.8872 26.4111 26.4409 26.8672 25.8902 27.0692C25.6655 27.1581 25.432 27.2026 25.2083 27.2092C25.129 27.212 25.0513 27.2147 24.9753 27.2174C24.6093 27.2305 24.2835 27.242 24.0143 27.2458C23.3659 27.2549 22.6304 27.2406 22.0841 27.2299C21.9949 27.2281 21.9106 27.2265 21.8326 27.2251C21.3988 27.2303 20.9649 27.236 20.5311 27.2418C20.5021 27.2386 20.4729 27.2352 20.4433 27.2318C20.073 27.1889 19.6179 27.1894 18.9015 27.1902C18.5895 27.1906 18.2279 27.1909 17.8022 27.1878C17.5279 27.1858 17.387 27.1688 17.2718 27.1549C17.238 27.1508 17.2062 27.147 17.1741 27.1439C17.0639 27.1334 16.9477 27.1448 16.8105 27.1583C16.6325 27.1758 16.4189 27.1968 16.1367 27.1778C15.2377 27.1173 14.8415 27.1584 14.5419 27.1894C14.454 27.1985 14.3743 27.2068 14.2927 27.2113C14.0282 27.2262 13.6514 27.2115 13.3665 27.1913C13.1407 27.1753 12.6889 27.1912 12.3462 27.2113C12.2167 27.219 12.0414 27.2191 11.8351 27.2193C11.6215 27.2195 11.3744 27.2197 11.1101 27.2282C10.442 27.2498 10.087 27.2603 9.80165 27.2687C9.72028 27.2711 9.6445 27.2733 9.56879 27.2755C9.32955 27.2827 9.03266 27.2886 8.73207 27.2946C8.37235 27.3017 8.00727 27.309 7.72949 27.3186C7.44467 27.3146 7.15983 27.3102 6.875 27.3055C6.34433 27.3011 5.81986 27.0814 5.44632 26.7128C5.12247 26.4011 4.9662 25.9765 4.95952 25.672C4.95121 25.3636 5.04824 25.2071 5.12732 25.2083C5.21155 25.2088 5.28017 25.3565 5.39253 25.5675C5.50428 25.7791 5.66866 26.0333 5.89689 26.2385C6.16322 26.4823 6.5194 26.6151 6.875 26.6065C7.18488 26.6014 7.49476 26.5966 7.80463 26.5923C8.71219 26.5796 9.61981 26.5709 10.5274 26.5709C11.1623 26.5709 11.7972 26.5728 12.432 26.5764C12.4974 26.5767 12.5628 26.5771 12.6281 26.5775C13.1615 26.5573 13.6938 26.5388 14.0689 26.5322C14.3786 26.5268 14.6044 26.5376 14.7977 26.5469C14.9308 26.5533 15.0485 26.5589 15.1676 26.558C15.2316 26.5575 15.319 26.5563 15.4244 26.5548C15.8547 26.5486 16.5856 26.5382 17.2523 26.558C17.5481 26.5668 17.8918 26.5841 18.2199 26.6006C18.6891 26.6242 19.1266 26.6462 19.3474 26.6395C19.7353 26.6276 20.1801 26.6377 20.5731 26.6466C20.948 26.6551 21.2759 26.6625 21.4623 26.6488C21.6851 26.6324 21.8752 26.639 22.1576 26.6489C22.3536 26.6558 22.594 26.6642 22.9209 26.6676C23.2982 26.6715 23.5651 26.6829 23.792 26.6927C24.1113 26.7065 24.3516 26.7168 24.7096 26.6978C24.8753 26.689 25.0441 26.6815 25.2083 26.6763C25.4059 26.6693 25.5898 26.6254 25.7419 26.5695C25.861 26.5263 25.9901 26.4557 26.1086 26.3617C26.2664 26.2379 26.4025 26.0733 26.5003 25.9073C26.5812 25.7706 26.6377 25.6492 26.6775 25.5361C26.6899 25.5007 26.7004 25.4664 26.7092 25.4324C26.72 25.3583 26.7253 25.2836 26.7251 25.2083C26.725 25.1521 26.7218 25.0963 26.7155 25.0408C26.7106 25.02 26.7049 24.9984 26.6985 24.9761C26.666 24.8638 26.6149 24.7313 26.5335 24.5803C26.4033 24.3429 26.25 24.1561 26.0496 24.0024C25.8934 23.8846 25.7042 23.7884 25.4713 23.749C25.3893 23.7353 25.3001 23.7289 25.2083 23.7318C25.1089 23.7344 25.0067 23.7376 24.905 23.7407C24.5924 23.7503 24.2837 23.7598 24.0692 23.7537C23.9888 23.7515 23.9197 23.7415 23.8514 23.7315C23.8511 23.7314 23.8508 23.7313 23.8505 23.7313C23.8458 23.7306 23.8412 23.7299 23.8365 23.7293C23.3142 23.7369 22.7917 23.7454 22.2694 23.7542C22.2241 23.7568 22.1784 23.7594 22.133 23.7619C21.9115 23.7741 21.6963 23.786 21.556 23.8029C21.4039 23.8212 21.0215 23.8318 20.6186 23.843C20.3547 23.8504 20.0819 23.858 19.8592 23.8681C19.729 23.8741 19.6054 23.8637 19.4784 23.8531C19.3598 23.8431 19.2381 23.8329 19.105 23.8354C19.0383 23.8367 18.9664 23.841 18.8895 23.8455C18.8219 23.8496 18.7504 23.8539 18.6755 23.8565C18.6059 23.8589 18.451 23.8533 18.2523 23.8461C18.1296 23.8417 17.9901 23.8367 17.8437 23.8325C17.4567 23.839 17.0696 23.8452 16.6826 23.8509C16.6019 23.86 16.5319 23.8718 16.4764 23.8869C16.4366 23.8977 16.4027 23.9107 16.368 23.9239C16.3206 23.9419 16.2716 23.9606 16.2041 23.9754C16.1513 23.987 16.0891 23.9917 16.0473 23.9868C16.0278 23.9846 16.0129 23.9804 15.9993 23.9765C15.9837 23.9721 15.9699 23.9682 15.9529 23.9683C15.9407 23.9684 15.928 23.9715 15.9124 23.9753C15.8874 23.9813 15.8549 23.9891 15.8055 23.9893C15.6217 23.9904 15.4127 23.9879 15.208 23.9854C14.9804 23.9827 14.7579 23.9801 14.5806 23.9824C14.382 23.985 14.0991 23.9734 13.8156 23.9619C13.6179 23.9539 13.4198 23.9459 13.2499 23.9427C13.0834 23.9394 12.9101 23.9458 12.7422 23.9521C12.5407 23.9595 12.3469 23.9667 12.1822 23.9566C12.1489 23.9546 12.1075 23.9421 12.0556 23.9264C12.0188 23.9153 11.9765 23.9026 11.9283 23.891C11.7186 23.891 11.5089 23.8904 11.2993 23.8895C11.2919 23.8912 11.2843 23.8929 11.2766 23.8947C11.2765 23.8947 11.2764 23.8948 11.2763 23.8948C11.1041 23.9346 10.8684 23.989 10.5373 23.9566C10.4532 23.9483 10.4002 23.9331 10.3525 23.9193C10.3056 23.9059 10.2637 23.8938 10.2024 23.8913C10.1327 23.8884 10.0505 23.8967 9.96081 23.9057C9.83492 23.9183 9.69432 23.9324 9.55322 23.9193C9.54359 23.9184 9.53323 23.9174 9.52244 23.9164C9.42017 23.9071 9.26876 23.8932 9.11811 23.8654C8.67113 23.8579 8.22409 23.8492 7.77711 23.8397C7.47642 23.8334 7.17571 23.8266 6.875 23.8196C6.51434 23.8077 6.15047 23.9428 5.8804 24.1941C5.65825 24.397 5.49759 24.6472 5.38793 24.8553C5.27759 25.0629 5.20993 25.2079 5.12732 25.2083C5.04966 25.2095 4.95475 25.0563 4.96043 24.7543C4.96464 24.456 5.11167 24.0394 5.42228 23.727C5.79545 23.3425 6.33054 23.1092 6.875 23.1017C7.02174 23.0983 7.16847 23.095 7.3152 23.0917C7.34618 23.09 7.3773 23.0884 7.40827 23.0869C7.6387 23.0755 7.85251 23.0528 8.06646 23.03C8.1156 23.0248 8.16484 23.0196 8.21421 23.0145ZM38.3896 26.1204C38.8234 26.4994 39.5958 27.2941 40.0207 27.7313C40.0285 27.7393 40.0363 27.7473 40.0441 27.7553C40.145 27.859 40.2413 27.9562 40.3543 28.07C40.384 28.0999 40.4149 28.131 40.4473 28.1636H39.7611C40.0246 27.9023 40.3913 27.5411 41.0851 26.8784C41.3063 26.656 41.5278 26.4338 41.7496 26.212C42.5975 25.3641 43.4483 24.5191 44.3011 23.6761C45.1025 22.8435 46.5683 22.8561 47.3514 23.6902C48.1742 24.4865 48.1574 25.9358 47.3324 26.7074C47.0547 26.9792 46.7769 27.2509 46.499 27.5226C46.4689 27.553 46.4382 27.5839 46.4073 27.6151C45.8093 28.2188 45.0679 28.9673 44.5898 29.4254C43.982 30.0078 43.566 30.4003 43.2239 30.7221C43.0714 30.8711 42.919 31.0201 42.7665 31.1691V30.7059C44.2541 32.2275 45.7436 33.7473 47.2395 35.2605C47.5245 35.5467 47.7191 35.9237 47.7866 36.3215C47.8985 36.9471 47.6855 37.6211 47.2323 38.0656C46.9942 38.304 46.6931 38.4807 46.368 38.5711C45.6954 38.7652 44.9256 38.5669 44.4333 38.0667C44.313 37.9469 44.1926 37.8272 44.0722 37.7075C43.7464 37.3937 43.4353 37.0967 43.1468 36.8214C42.7414 36.4344 42.3805 36.0899 42.0865 35.8012C41.3781 35.1058 40.592 34.2994 40.0083 33.7006C39.9684 33.6597 39.9295 33.6198 39.8916 33.5809H40.3168C40.2626 33.6337 40.2105 33.6845 40.1608 33.733C39.6949 34.2064 39.2292 34.6801 38.7637 35.1537C38.73 35.1828 38.6961 35.212 38.6615 35.2417C38.2304 35.6122 37.7381 36.1052 36.9631 36.8813C36.6264 37.2185 36.2362 37.6091 35.7747 38.0663C35.7734 38.0676 35.7722 38.0688 35.7709 38.0701C35.4184 38.4045 35.1583 38.4681 34.9694 38.5206C34.9122 38.5346 34.8581 38.5452 34.8034 38.5544C34.6162 38.5853 34.4182 38.6164 34.1793 38.6068C33.8752 38.5928 33.4767 38.5071 33.105 38.172C33.063 38.1337 33.0239 38.0948 32.9868 38.0549C32.054 36.8842 32.5074 36.0424 32.6864 35.6301C32.7601 35.4932 32.8425 35.3762 32.9404 35.2689C32.9462 35.2626 32.9522 35.2562 32.9582 35.2498C33.234 34.9549 33.643 34.5665 33.9597 34.2777C34.2154 34.0446 34.6933 33.5442 35.05 33.159C35.1848 33.0134 35.3744 32.8236 35.5976 32.6C35.8287 32.3687 36.096 32.1011 36.3761 31.8089C36.8552 31.3091 37.1827 30.9682 37.4383 30.7024V31.1726C37.3113 31.0506 37.2015 30.9449 37.0998 30.847C37.01 30.7606 36.9265 30.6801 36.8429 30.5998C36.5789 30.3459 36.2533 30.0286 35.9237 29.7075C35.5293 29.3231 35.129 28.933 34.8214 28.6391C34.1812 27.9869 33.5422 27.3335 32.9034 26.6799C32.7439 26.5175 32.6109 26.3288 32.5124 26.1233C32.2045 25.4986 32.3255 24.786 32.5768 24.4017C32.8295 24.0067 33.0889 23.9172 33.1393 23.9726C33.2009 24.0336 33.0759 24.2357 32.9833 24.584C32.8887 24.9289 32.8818 25.4165 33.0996 25.8348C33.1701 25.9734 33.2634 26.0995 33.3752 26.2082C34.0561 26.8738 34.7369 27.5397 35.4164 28.2069C36.2552 29.0306 37.0921 29.8563 37.9249 30.6861L38.1762 30.9444L37.9249 31.1889C37.7739 31.3404 37.6229 31.4918 37.4717 31.6429C36.7845 32.3302 36.0958 33.0161 35.4061 33.7009C35.3351 33.7714 35.264 33.8419 35.193 33.9124C34.63 34.5041 34.0668 35.0934 33.6654 35.5041C33.5859 35.5855 33.5109 35.661 33.4399 35.7315C33.2661 35.9052 33.168 36.0787 33.1053 36.2419C33.0495 36.3903 33.0239 36.5326 33.0254 36.676C33.0265 36.7529 33.0348 36.8586 33.0657 36.9813C33.1136 37.1756 33.2245 37.4137 33.428 37.6137C33.7378 37.9355 34.2897 38.0981 34.7651 37.959C34.9648 37.9049 35.1717 37.798 35.345 37.6366C35.4988 37.492 35.6551 37.3456 35.8084 37.2021C36.333 36.711 36.8221 36.253 37.0564 36.0091C37.4679 35.5809 37.9565 35.1065 38.3883 34.6874C38.8001 34.2876 39.1603 33.9379 39.3524 33.7263C39.529 33.532 39.6941 33.3683 39.9032 33.1673L40.1097 32.9664L40.3051 33.1673C40.3656 33.2302 40.4295 33.297 40.4986 33.3694C40.7059 33.5863 40.9603 33.8525 41.3116 34.2087C41.7173 34.6199 41.9982 34.9169 42.2369 35.1694C42.5728 35.5248 42.8256 35.7922 43.2267 36.1664C43.6722 36.582 44.1318 37.0225 44.4815 37.3817C44.5789 37.4816 44.6859 37.5893 44.7984 37.7016C44.8596 37.7628 44.9279 37.8199 45.002 37.8708C45.2535 38.0464 45.5759 38.1369 45.8714 38.1347C46.1152 38.134 46.3174 38.0883 46.4875 38.0224C46.5406 38.0017 46.5907 37.9786 46.6377 37.9535C46.7346 37.8927 46.8247 37.8206 46.9058 37.7391C46.9665 37.6783 47.0218 37.6126 47.0711 37.5428C47.0877 37.5149 47.1041 37.4851 47.1201 37.4534C47.1996 37.2948 47.2711 37.0869 47.2909 36.8244C47.3182 36.4097 47.2062 36.0403 46.9706 35.7349C46.9411 35.6971 46.9094 35.6603 46.8754 35.6246C46.6679 35.4086 46.4495 35.183 46.1992 34.936C45.996 34.7355 45.7615 34.5102 45.5291 34.2869C45.1839 33.9553 44.8431 33.6278 44.6151 33.3914C44.5297 33.3028 44.462 33.2209 44.3951 33.1398C44.3948 33.1395 44.3945 33.1391 44.3942 33.1387C44.3897 33.1332 44.3851 33.1277 44.3806 33.1222C43.8097 32.5621 43.2382 32.0026 42.6665 31.4433C42.6157 31.3962 42.5644 31.3484 42.5135 31.3011C42.4536 31.2455 42.3942 31.1901 42.3361 31.1363L42.1374 30.932L42.3361 30.7387C42.5057 30.5558 42.6607 30.3868 42.7669 30.2624C42.9186 30.0848 43.325 29.6634 43.7533 29.2192C44.0337 28.9284 44.3237 28.6277 44.5576 28.3794C44.6943 28.2343 44.8353 28.1079 44.9804 27.9779C45.1158 27.8565 45.2548 27.732 45.3971 27.5861C45.4683 27.5131 45.5432 27.4321 45.6231 27.3457C45.6935 27.2697 45.7679 27.1892 45.8471 27.1063C45.9207 27.0293 46.0924 26.8656 46.3125 26.6556C46.4485 26.5258 46.6031 26.3783 46.7644 26.2227C46.7782 26.2087 46.7919 26.1947 46.8056 26.1806C47.13 25.853 47.2642 25.3614 47.1597 24.9191C47.1302 24.8255 47.0909 24.7499 47.0517 24.6957C47.0236 24.6568 46.9946 24.6271 46.9642 24.5985C46.9224 24.5596 46.8784 24.5224 46.8222 24.4718C46.7784 24.4321 46.7305 24.385 46.7014 24.3491C46.7 24.3474 46.6987 24.3458 46.6975 24.3442C46.6861 24.3294 46.678 24.3166 46.6705 24.3049C46.661 24.2901 46.652 24.2768 46.6377 24.2647C46.6273 24.2559 46.6146 24.2494 46.5988 24.2416C46.5734 24.2292 46.5409 24.2138 46.496 24.1849C46.3295 24.0764 46.1099 23.9975 45.8859 23.9866C45.6366 23.9716 45.3939 24.0429 45.2286 24.1415C45.1468 24.1892 45.0541 24.2532 44.964 24.339C44.8052 24.4922 44.6284 24.6599 44.4514 24.8278C44.2316 25.0361 44.0116 25.2449 43.8254 25.4264C43.6429 25.6044 43.4597 25.7966 43.2824 25.9827C43.0695 26.2061 42.8648 26.421 42.6794 26.5922C42.6418 26.6268 42.5882 26.6627 42.521 26.7078C42.4733 26.7398 42.4185 26.7766 42.3581 26.8205C42.1311 27.0475 41.9038 27.2741 41.6761 27.5004C41.6693 27.5096 41.6623 27.5191 41.6553 27.5286C41.6552 27.5287 41.6551 27.5289 41.655 27.529C41.4967 27.7436 41.2801 28.0372 40.8987 28.3726C40.8018 28.4579 40.7336 28.5044 40.6723 28.5464C40.612 28.5876 40.5581 28.6244 40.4899 28.689C40.4574 28.7198 40.4239 28.7544 40.3892 28.7918L40.0963 29.0768L39.8191 28.7918C39.7674 28.7439 39.7102 28.6938 39.6502 28.6412C39.505 28.5139 39.3428 28.3717 39.1994 28.2096C39.1896 28.1986 39.179 28.1867 39.1681 28.1743C39.064 28.057 38.9098 27.8833 38.7664 27.7005C38.2878 27.2114 37.81 26.7214 37.3329 26.2308C36.6787 25.5582 36.0255 24.8845 35.3726 24.2107C35.2567 24.0902 35.1203 23.9907 34.9699 23.9179C34.5558 23.7125 34.0781 23.7239 33.7395 23.8183C33.3976 23.9109 33.1991 24.033 33.1393 23.9726C33.0849 23.9229 33.1726 23.6697 33.5569 23.4188C33.9311 23.1695 34.6235 23.04 35.2437 23.3237C35.4674 23.4231 35.6735 23.5635 35.8488 23.7345C36.3533 24.2234 36.8578 24.7124 37.3618 25.2018C37.3965 25.2342 37.4314 25.2667 37.466 25.2991C37.7234 25.5406 37.9709 25.7559 38.2187 25.9714C38.2756 26.0209 38.3326 26.0705 38.3896 26.1204ZM8.21421 34.4728C8.58961 34.4341 9.31348 34.4499 9.71166 34.4586C9.71896 34.4587 9.72626 34.4589 9.73357 34.459C9.82807 34.4611 9.91746 34.4616 10.0222 34.4622C10.2719 34.4636 10.6093 34.4655 11.3136 34.4901C11.5185 34.4892 11.7234 34.4887 11.9283 34.4887C14.1411 34.4887 16.3539 34.5209 18.5667 34.5595C18.5946 34.5593 18.6231 34.5591 18.6518 34.5589C19.2068 34.5549 19.895 34.5499 20.3274 34.5641C20.8772 34.582 21.2506 34.5987 21.5572 34.6131C22.7742 34.6345 23.9913 34.6544 25.2083 34.6685C25.8382 34.6698 26.4534 34.9929 26.8141 35.5022C27.0567 35.8384 27.1891 36.2536 27.1869 36.6667C27.1865 36.8868 27.1497 37.107 27.0772 37.3155C26.8872 37.8694 26.4409 38.3255 25.8902 38.5275C25.6655 38.6164 25.432 38.661 25.2083 38.6675C25.129 38.6703 25.0513 38.6731 24.9753 38.6758C24.6093 38.6888 24.2835 38.7004 24.0143 38.7041C23.3659 38.7132 22.6304 38.6989 22.0841 38.6882C21.9949 38.6865 21.9106 38.6848 21.8326 38.6834C21.3988 38.6887 20.9649 38.6943 20.5311 38.7001C20.5021 38.6969 20.4729 38.6936 20.4433 38.6901C20.073 38.6472 19.6179 38.6477 18.9015 38.6485C18.5895 38.6489 18.2279 38.6493 17.8022 38.6462C17.5279 38.6442 17.387 38.6271 17.2718 38.6133C17.238 38.6092 17.2062 38.6054 17.1741 38.6023C17.0639 38.5917 16.9477 38.6031 16.8105 38.6166C16.6325 38.6341 16.4189 38.6551 16.1367 38.6362C15.2377 38.5756 14.8415 38.6167 14.5419 38.6478C14.454 38.6569 14.3743 38.6651 14.2927 38.6697C14.0282 38.6845 13.6514 38.6698 13.3665 38.6496C13.1407 38.6337 12.6889 38.6495 12.3462 38.6697C12.2167 38.6773 12.0414 38.6775 11.8351 38.6777C11.6215 38.6778 11.3744 38.678 11.1101 38.6866C10.442 38.7082 10.087 38.7187 9.80165 38.727C9.72028 38.7294 9.6445 38.7316 9.56879 38.7339C9.32955 38.741 9.03266 38.747 8.73207 38.7529C8.37235 38.7601 8.00727 38.7673 7.72949 38.777C7.44467 38.7729 7.15983 38.7685 6.875 38.7638C6.34433 38.7594 5.81986 38.5397 5.44632 38.1712C5.12247 37.8595 4.9662 37.4349 4.95952 37.1303C4.95121 36.8219 5.04824 36.6654 5.12732 36.6667C5.21155 36.6671 5.28017 36.8149 5.39253 37.0258C5.50428 37.2375 5.66866 37.4916 5.89689 37.6968C6.16322 37.9406 6.5194 38.0734 6.875 38.0648C7.18488 38.0598 7.49476 38.055 7.80463 38.0506C8.71219 38.0379 9.61981 38.0292 10.5274 38.0292C11.1623 38.0292 11.7972 38.0312 12.432 38.0347C12.4974 38.0351 12.5628 38.0355 12.6281 38.0359C13.1615 38.0156 13.6938 37.9971 14.0689 37.9906C14.3786 37.9851 14.6044 37.996 14.7977 38.0052C14.9308 38.0116 15.0485 38.0172 15.1676 38.0163C15.2316 38.0159 15.319 38.0146 15.4244 38.0131C15.8547 38.007 16.5856 37.9965 17.2523 38.0163C17.5481 38.0251 17.8918 38.0424 18.2199 38.0589C18.6891 38.0826 19.1266 38.1046 19.3474 38.0978C19.7353 38.0859 20.1801 38.096 20.5731 38.1049C20.948 38.1134 21.2759 38.1208 21.4623 38.1071C21.6851 38.0907 21.8752 38.0974 22.1576 38.1073C22.3536 38.1141 22.594 38.1225 22.9209 38.1259C23.2982 38.1298 23.5651 38.1413 23.792 38.151C24.1113 38.1648 24.3516 38.1751 24.7096 38.1561C24.8753 38.1473 25.0441 38.1398 25.2083 38.1346C25.4059 38.1277 25.5898 38.0838 25.7419 38.0278C25.861 37.9846 25.9901 37.914 26.1086 37.82C26.2664 37.6962 26.4025 37.5316 26.5003 37.3656C26.5812 37.2289 26.6377 37.1075 26.6775 36.9944C26.6899 36.959 26.7004 36.9247 26.7092 36.8907C26.72 36.8167 26.7253 36.7419 26.7251 36.6667C26.725 36.6104 26.7218 36.5546 26.7155 36.4991C26.7106 36.4783 26.7049 36.4567 26.6985 36.4344C26.666 36.3221 26.6149 36.1896 26.5335 36.0387C26.4033 35.8012 26.25 35.6144 26.0496 35.4608C25.8934 35.3429 25.7042 35.2467 25.4713 35.2073C25.3893 35.1936 25.3001 35.1873 25.2083 35.1901C25.1089 35.1927 25.0067 35.1959 24.905 35.199C24.5924 35.2086 24.2837 35.2181 24.0692 35.2121C23.9888 35.2098 23.9197 35.1998 23.8514 35.1898C23.8511 35.1897 23.8508 35.1897 23.8505 35.1896C23.8458 35.1889 23.8412 35.1883 23.8365 35.1876C23.3142 35.1953 22.7917 35.2037 22.2694 35.2126C22.2241 35.2151 22.1784 35.2177 22.133 35.2202C21.9115 35.2324 21.6963 35.2443 21.556 35.2612C21.4039 35.2795 21.0215 35.2902 20.6186 35.3014C20.3547 35.3087 20.0819 35.3163 19.8592 35.3265C19.729 35.3324 19.6054 35.322 19.4784 35.3114C19.3598 35.3014 19.2381 35.2912 19.105 35.2937C19.0383 35.295 18.9664 35.2993 18.8895 35.3039C18.8219 35.3079 18.7504 35.3122 18.6755 35.3148C18.6059 35.3172 18.451 35.3116 18.2523 35.3044C18.1296 35.3 17.9901 35.295 17.8437 35.2909C17.4567 35.2973 17.0696 35.3035 16.6826 35.3092C16.6019 35.3183 16.5319 35.3301 16.4764 35.3452C16.4366 35.356 16.4027 35.369 16.368 35.3822C16.3206 35.4003 16.2716 35.4189 16.2041 35.4338C16.1513 35.4454 16.0891 35.45 16.0473 35.4452C16.0278 35.4429 16.0129 35.4387 15.9993 35.4349C15.9837 35.4305 15.9699 35.4266 15.9529 35.4267C15.9407 35.4268 15.928 35.4299 15.9124 35.4336C15.8874 35.4396 15.8549 35.4474 15.8055 35.4477C15.6217 35.4487 15.4127 35.4462 15.208 35.4438C14.9804 35.441 14.7579 35.4384 14.5806 35.4407C14.382 35.4433 14.0991 35.4318 13.8156 35.4203C13.6179 35.4122 13.4198 35.4043 13.2499 35.401C13.0834 35.3978 12.9101 35.4042 12.7422 35.4104C12.5407 35.4179 12.3469 35.4251 12.1822 35.415C12.1489 35.4129 12.1075 35.4004 12.0556 35.3847C12.0188 35.3737 11.9765 35.361 11.9283 35.3493C11.7186 35.3493 11.5089 35.3488 11.2993 35.3478C11.2919 35.3495 11.2843 35.3512 11.2766 35.353C11.2765 35.3531 11.2764 35.3531 11.2763 35.3531C11.1041 35.3929 10.8684 35.4474 10.5373 35.4149C10.4532 35.4066 10.4002 35.3914 10.3525 35.3777C10.3056 35.3642 10.2637 35.3521 10.2024 35.3496C10.1327 35.3467 10.0505 35.355 9.96081 35.364C9.83492 35.3766 9.69432 35.3908 9.55322 35.3776C9.54359 35.3767 9.53323 35.3757 9.52244 35.3747C9.42017 35.3654 9.26876 35.3516 9.11811 35.3237C8.67113 35.3163 8.22409 35.3076 7.77711 35.2981C7.47642 35.2917 7.17571 35.2849 6.875 35.278C6.51434 35.266 6.15047 35.4011 5.8804 35.6524C5.65825 35.8554 5.49759 36.1055 5.38793 36.3137C5.27759 36.5212 5.20993 36.6662 5.12732 36.6667C5.04966 36.6678 4.95475 36.5147 4.96043 36.2126C4.96464 35.9144 5.11167 35.4977 5.42228 35.1854C5.79545 34.8008 6.33054 34.5675 6.875 34.56C7.02174 34.5566 7.16847 34.5533 7.3152 34.55C7.34618 34.5483 7.3773 34.5467 7.40827 34.5452C7.6387 34.5339 7.85251 34.5111 8.06646 34.4884C8.1156 34.4831 8.16484 34.4779 8.21421 34.4728Z" fill="#1C352D"/>
</svg>
