<svg width="100" height="100" viewBox="0 0 100 100" fill="none" xmlns="http://www.w3.org/2000/svg">
<path d="M86.8419 62.0225C86.9581 63.4993 86.9106 66.3469 86.8846 67.9133C86.8841 67.942 86.8837 67.9708 86.8833 67.9995C86.8771 68.3713 86.8755 68.7229 86.8738 69.1349C86.871 69.7882 86.8676 70.5939 86.8438 71.875C86.8312 72.5692 86.784 73.3874 86.6441 74.3715C86.5466 75.2251 86.3944 76.0796 86.1899 76.9161C84.131 85.8342 75.6379 92.6656 66.5836 92.8195L66.5572 92.8204C66.3275 92.8225 66.0977 92.8247 65.868 92.8268C65.7964 92.8288 65.7241 92.8308 65.6512 92.8329L65.6249 92.8332C65.5858 92.8334 65.5464 92.8336 65.507 92.8338C63.3236 92.8458 60.6163 92.8606 58.9152 92.8182C56.7525 92.7644 55.2836 92.7144 54.0772 92.6712C47.5098 92.5828 40.9423 92.5034 34.3749 92.4662C33.9981 92.4642 33.6237 92.4419 33.2494 92.399C30.9107 92.1377 28.6841 91.027 27.0612 89.333C26.06 88.2943 25.2806 87.041 24.7964 85.6787L24.4158 84.6531L25.5337 84.6358C26.1964 84.6342 26.859 84.6322 27.5216 84.6299C28.6838 84.6046 29.7886 84.5745 30.8132 84.5467C32.253 84.5076 33.5347 84.4728 34.5935 84.4614C37.1443 84.4341 40.0379 84.477 42.1867 84.509C42.5379 84.5142 42.8695 84.5191 43.1761 84.5234C44.8827 84.5075 46.5897 84.4905 48.2963 84.4731C48.4102 84.4827 48.525 84.4928 48.6417 84.5031C50.0982 84.6318 51.8887 84.6301 54.7071 84.6276C55.9344 84.6265 57.3569 84.6254 59.0315 84.6346C60.1107 84.6406 60.665 84.6916 61.1179 84.7333C61.2512 84.7455 61.3761 84.757 61.5026 84.7662C61.9361 84.7979 62.3931 84.7636 62.9329 84.7231C63.6332 84.6706 64.4735 84.6075 65.5834 84.6645C65.5973 84.6652 65.6111 84.6659 65.6249 84.6666L65.6042 84.6669C65.8718 84.6731 66.128 84.6778 66.3735 84.6813L66.3533 84.6821C69.1926 84.593 70.4185 83.7948 71.2907 83.3056C71.5701 83.1361 71.8162 82.9735 72.0684 82.8088C72.891 82.2854 74.0146 81.4689 74.7852 80.7423C75.4167 80.1882 76.4235 78.8177 76.9251 77.6534C77.1222 77.2187 77.392 76.6319 77.6333 75.9119C77.8834 75.1681 78.0999 74.2791 78.1828 73.3103C78.2044 73.0589 78.2175 72.8214 78.2244 72.5918L78.2233 72.6178C78.2242 72.3475 78.225 72.0916 78.2259 71.849L78.2255 71.875C78.185 70.1963 78.1614 69.1475 78.1417 68.2672C78.1345 67.9471 78.128 67.649 78.1212 67.3512C78.0997 66.41 78.082 65.2421 78.0641 64.0596C78.0427 62.6445 78.0209 61.2083 77.9919 60.1155C78.0226 57.2831 78.0606 54.4504 78.0985 51.6183C78.1011 51.4248 78.1053 51.2323 78.1111 51.0417C78.1284 49.3386 79.3426 48.0298 80.3831 47.6629C81.6217 47.2133 82.3115 47.6126 82.2916 47.8299C82.2946 48.0882 81.6867 48.257 81.0412 48.826C80.4819 49.3099 79.9998 50.1373 80.0486 51.0417C80.0544 51.2323 80.0586 51.4248 80.0612 51.6183C80.1005 54.5489 80.1397 57.4802 80.1709 60.4111C80.209 63.9814 80.2352 67.5519 80.2352 71.1222C80.2352 71.3731 80.2351 71.6241 80.235 71.875L80.2346 71.9045C80.2274 72.1606 80.2201 72.4167 80.2128 72.6729L80.2116 72.703C80.0921 74.8475 79.4858 76.9642 78.4502 78.8441C78.3169 79.0867 78.1761 79.3262 78.0291 79.5607C76.8992 81.5281 75.2334 83.1437 73.9124 84.0495C72.8234 84.8066 71.9247 85.1932 71.153 85.4808C70.62 85.6764 70.139 85.821 69.6523 85.9632C69.3908 86.0393 69.032 86.138 68.5925 86.233C68.0069 86.3599 67.2761 86.4785 66.4567 86.5292L66.4246 86.5305C66.1762 86.5391 65.9195 86.5476 65.6564 86.556L65.625 86.5564C64.2404 86.5621 62.6774 86.5576 61.1949 86.5241C60.0311 86.4978 58.6791 86.4459 57.3883 86.3964C55.5427 86.3256 53.8216 86.2595 52.9527 86.2799C51.427 86.3156 49.6772 86.2854 48.1311 86.2588C46.6563 86.2333 45.3665 86.2111 44.6329 86.2523C43.7564 86.3015 43.0089 86.2815 41.8976 86.2518C41.1268 86.2313 40.1808 86.2061 38.8952 86.1961C37.4109 86.1844 36.3608 86.15 35.4682 86.1207C34.2121 86.0795 33.2669 86.0486 31.8582 86.1057C30.2934 86.1691 28.658 86.2094 27.3699 86.1895C26.8169 86.1809 26.1889 86.1824 25.5338 86.1846L26.2565 85.1623C26.2689 85.1968 26.2815 85.2313 26.2943 85.2658C26.5883 86.0622 27.0283 86.8462 27.5065 87.5084C27.8999 88.0549 28.2603 88.4868 28.606 88.8489C28.714 88.9616 28.8209 89.0671 28.9278 89.1661C29.3554 89.5047 29.8143 89.8029 30.2972 90.0555C30.3789 90.0898 30.4653 90.1241 30.5559 90.1583C31.0112 90.3297 31.5794 90.5054 32.2907 90.655C33.0173 90.8061 33.6961 90.8815 34.3749 90.8944C34.7801 90.9011 35.1833 90.911 35.594 90.9211C36.496 90.9432 37.4344 90.9663 38.5103 90.958C39.2439 90.9524 40.0792 90.9328 40.9072 90.9134C42.137 90.8845 43.3514 90.8561 44.1952 90.8742C44.5114 90.8809 44.7832 90.9111 45.0522 90.941C45.0533 90.9412 45.0545 90.9414 45.0557 90.9416C45.074 90.9436 45.0923 90.9456 45.1106 90.9476C47.1655 90.9247 49.2207 90.8994 51.2756 90.8727C51.4537 90.865 51.6337 90.8573 51.812 90.8498C52.6834 90.8131 53.5301 90.7774 54.0822 90.7268C54.6804 90.6719 56.1847 90.6399 57.7698 90.6063C58.8079 90.5843 59.8811 90.5615 60.7573 90.531C61.2694 90.5132 61.7554 90.5443 62.2553 90.5763C62.7217 90.6061 63.2006 90.6367 63.724 90.6292C63.9863 90.6254 64.2695 90.6125 64.5717 90.5988C64.8378 90.5867 65.1191 90.5739 65.4137 90.566C65.4702 90.5645 65.5411 90.564 65.6249 90.5644L65.6001 90.5647C65.8211 90.5607 66.1321 90.5607 66.5063 90.5621L66.482 90.563C66.6438 90.5602 66.8177 90.5553 67.001 90.5473C67.4557 90.5278 67.977 90.4876 68.5178 90.4163C69.9415 90.1767 71.3337 89.7726 72.6596 89.2153C72.9279 89.077 73.1518 88.9401 73.3193 88.8141C73.4392 88.7237 73.5363 88.6351 73.6342 88.5439C73.7676 88.4195 73.9033 88.2902 74.1006 88.1371C74.2553 88.0172 74.4468 87.8968 74.5862 87.8347C74.6512 87.8059 74.7047 87.7899 74.7532 87.7753C74.8088 87.7585 74.8584 87.7432 74.9116 87.7115C74.9499 87.6887 74.9851 87.657 75.0283 87.6181C75.0971 87.5558 75.1862 87.4749 75.3378 87.3789C75.9026 87.0215 76.5289 86.5891 77.1129 86.1261C77.7634 85.6129 78.3605 85.0616 78.8032 84.5916C79.3011 84.0677 80.0043 83.3114 80.6294 82.4841C81.0672 81.9091 81.469 81.3029 81.7773 80.7628C82.0808 80.233 82.3426 79.6526 82.5656 79.0806C82.8343 78.3936 83.0465 77.72 83.2477 77.1514C83.2883 77.0369 83.3666 76.9027 83.4619 76.731C83.5293 76.6095 83.6059 76.4673 83.682 76.3033C83.8656 75.5522 84.0039 74.7862 84.0948 74.0184C84.0928 73.9906 84.0908 73.962 84.0887 73.9334C84.0886 73.9329 84.0885 73.9325 84.0884 73.932C84.0481 73.4099 83.9787 72.7476 83.9862 71.875C83.9877 71.6505 83.9968 71.413 84.0156 71.1615C84.0404 70.8304 84.0861 70.622 84.1273 70.4342C84.1678 70.2498 84.2039 70.0849 84.2115 69.8437C84.2202 69.5696 84.1953 69.2461 84.1683 68.8934C84.1304 68.3982 84.0881 67.8451 84.1275 67.29C84.1302 67.2521 84.1331 67.2114 84.1361 67.1689C84.1642 66.7666 84.2057 66.171 84.2892 65.5783C84.3115 63.8199 84.3376 62.0613 84.3661 60.3029C84.4136 57.3719 84.4678 54.4402 84.5219 51.5094C84.5248 51.3527 84.5288 51.1966 84.5338 51.0417L84.5358 51.1005C84.5309 50.9578 84.5269 50.8159 84.5239 50.6752L84.5298 50.7341C84.4787 49.9384 84.026 49.2371 83.5241 48.8055C82.8848 48.25 82.2885 48.0833 82.2916 47.8299C82.2728 47.6161 82.9454 47.2273 84.1615 47.652C85.0899 47.9785 86.1795 49.0073 86.4185 50.4776L86.4257 50.5482C86.4414 50.688 86.4563 50.8292 86.4704 50.9713L86.4727 51.0417C86.4778 51.1966 86.4817 51.3527 86.4847 51.5094C86.5276 53.8345 86.5706 56.1604 86.6103 58.4858C86.6153 58.6077 86.6202 58.7301 86.6247 58.852C86.6587 59.7584 86.7269 60.5995 86.7952 61.4412C86.8109 61.6345 86.8266 61.8282 86.8419 62.0225ZM76.4252 59.831C76.5414 61.8787 76.494 65.827 76.4679 67.9989C76.4675 68.0387 76.4671 68.0785 76.4666 68.1184C76.4605 68.6339 76.4589 69.1214 76.4571 69.6927C76.4553 70.287 76.4532 70.9723 76.4452 71.875C76.4234 73.2016 76.2206 75.0471 74.9611 77.2039C74.3274 78.3181 73.492 79.3158 72.508 80.136C70.7887 81.5767 68.5984 82.455 66.3591 82.5955L66.3128 82.5978C66.0989 82.6045 65.885 82.6112 65.6711 82.6178L65.6249 82.6186C55.7259 82.5922 45.8268 82.5102 35.9278 82.4153C35.7753 82.4159 35.6202 82.4165 35.4636 82.4171C32.4363 82.4291 28.6825 82.444 26.3238 82.4016C25.4603 82.3861 24.6765 82.3709 23.9583 82.3561C21.9696 82.3106 20.4815 81.7712 19.3191 81.1624C16.0969 79.5419 13.8751 76.1544 13.6921 72.5784L13.6905 72.5475C13.6851 72.3335 13.6797 72.1196 13.6743 71.9056L13.6738 71.875C13.7255 65.7496 13.7673 59.6242 13.7893 53.4989C13.8001 50.4943 13.8059 47.4892 13.8059 44.4846C13.8059 43.8925 13.8058 43.3004 13.8054 42.7083C13.755 40.629 15.6251 38.7532 17.7083 38.7991C18.38 38.7966 19.0573 38.9729 19.6435 39.3068C20.7324 39.9034 21.4685 41.0122 21.6353 42.1715L21.641 42.2279C21.6533 42.37 21.6655 42.5112 21.6777 42.6515L21.6796 42.7083C21.6879 43.141 21.6962 43.565 21.7043 43.9795C21.7434 45.9758 21.7781 47.753 21.7895 49.221C21.8167 52.7578 21.7737 56.7699 21.7417 59.7493C21.7364 60.2362 21.7315 60.696 21.7272 61.1212C21.7431 63.4874 21.76 65.8542 21.7774 68.2204C21.7677 68.3784 21.7577 68.5376 21.7473 68.6994C21.6881 69.6286 21.6565 70.6559 21.6398 71.875C21.5922 72.7881 22.2944 74.001 23.6403 74.1899L23.5868 74.1845C23.7262 74.1937 23.8676 74.2031 24.0109 74.2126L23.9583 74.2108C24.0656 74.2107 24.1741 74.2107 24.2837 74.2106C25.9854 74.2096 27.9578 74.2084 30.2797 74.2178C31.7759 74.2237 32.5445 74.2748 33.1725 74.3164C33.3573 74.3287 33.5305 74.3401 33.7059 74.3494C34.307 74.3811 34.9406 74.3468 35.6891 74.3064C36.6601 74.2539 37.8251 74.1908 39.3641 74.2478C44.268 74.4293 46.4288 74.3062 48.0634 74.213C48.5428 74.1857 48.9774 74.161 49.4224 74.1472C50.8651 74.1028 52.9206 74.1468 54.4742 74.2073C55.706 74.2553 58.1705 74.2077 60.0396 74.1472C60.7463 74.1244 61.7021 74.1238 62.8277 74.1233C63.6748 74.1228 64.6186 74.1225 65.6249 74.1124C65.8975 74.1088 66.1715 74.0545 66.429 73.9468C67.298 73.5781 67.7066 72.7963 67.7687 72.1698L67.7621 72.2351C67.7693 72.0897 67.7763 71.9482 67.7832 71.8104L67.781 71.875C67.7566 70.4398 67.7398 69.3998 67.725 68.4897C67.7179 68.0458 67.7113 67.6325 67.7045 67.2195C67.683 65.9146 67.6653 64.2952 67.6474 62.6556C67.626 60.6935 67.6043 58.7022 67.5753 57.187C67.606 53.2597 67.6439 49.3321 67.6818 45.4053C67.6909 44.475 67.7194 43.562 67.7653 42.7083C67.8114 41.3837 68.5529 40.3056 69.3377 39.7728C70.8773 38.7772 71.922 39.3013 71.8749 39.4965C71.8899 39.7623 70.9975 39.8804 70.2119 40.7836C69.7998 41.2634 69.5026 41.9622 69.561 42.7083C69.607 43.562 69.6355 44.475 69.6446 45.4053C69.6838 49.4688 69.723 53.533 69.7543 57.5969C69.7908 62.3561 69.8165 67.1157 69.8184 71.875L69.816 71.9462C69.8067 72.0876 69.7972 72.229 69.7878 72.3704L69.7805 72.443C69.7715 72.5089 69.7611 72.5742 69.7491 72.6393C69.422 74.577 67.5851 76.1018 65.6249 76.0656C63.6071 76.0629 61.5893 76.0583 59.5715 76.0521C59.2149 76.051 58.8584 76.0498 58.5018 76.0487C55.5926 76.1095 52.6889 76.1648 50.6431 76.1845C48.9539 76.2008 47.7225 76.1683 46.6678 76.1406C45.942 76.1215 45.2998 76.1046 44.65 76.1072C44.3011 76.1087 43.8244 76.1124 43.2495 76.117C40.9024 76.1354 36.9159 76.1666 33.2792 76.1072C31.6655 76.0809 29.7909 76.029 28.0012 75.9794C26.5332 75.9388 25.1221 75.8997 23.9583 75.8776L23.8997 75.8757C23.7546 75.8632 23.6133 75.8512 23.4762 75.8399L23.4171 75.8339C22.5521 75.7058 21.8934 75.3227 21.4679 74.9898C20.5635 74.3 19.9406 73.1083 19.9553 71.875C19.9597 70.5624 19.9763 69.2297 19.9917 67.9913C20.0172 65.9464 20.0394 64.1581 19.9983 63.1409C19.9491 61.9256 19.9691 60.8892 19.9988 59.3483C20.0194 58.2796 20.0446 56.968 20.0547 55.1854C20.0664 53.1274 20.1008 51.6714 20.1301 50.4338C20.1714 48.6921 20.2024 47.3816 20.1453 45.4284C20.1189 44.5247 20.0965 43.6041 20.0808 42.7083L20.0825 42.7588C20.0705 42.6169 20.0586 42.4757 20.047 42.3351L20.0522 42.3863C19.9284 41.5555 19.353 40.8909 18.7312 40.5881C18.4367 40.4396 18.0846 40.3479 17.7083 40.3483C17.3872 40.3479 17.0577 40.4146 16.751 40.5526C15.9165 40.9122 15.3374 41.8231 15.3382 42.7083C15.3368 42.7949 15.3354 42.881 15.3338 42.9666C15.3151 43.9809 15.2671 44.8193 15.2247 45.5611C15.2114 45.7926 15.1988 46.0147 15.1877 46.2298C15.1883 47.0377 15.1892 47.8456 15.1906 48.6535C15.1983 48.7843 15.2069 48.9218 15.2157 49.0653C15.26 49.7856 15.3143 50.6712 15.3413 51.7675C15.3841 53.5028 15.3573 55.0255 15.3289 56.6317C15.3067 57.8823 15.2836 59.1835 15.2919 60.6752C15.2975 61.6923 15.3171 62.8505 15.3366 63.9986C15.3654 65.7037 15.3938 67.3876 15.3757 68.5576C15.369 68.996 15.3389 69.3728 15.3089 69.7457C15.3087 69.7474 15.3085 69.749 15.3084 69.7507C15.3063 69.776 15.3043 69.8014 15.3023 69.8267C15.3078 70.5095 15.3134 71.1922 15.3192 71.875L15.3188 71.8502C15.3278 72.064 15.3368 72.2779 15.3458 72.4917L15.3446 72.4666C15.4783 74.2626 16.1966 75.9968 17.3577 77.3586C17.5083 77.5275 17.6668 77.6921 17.8299 77.8486C18.6241 78.6198 19.5555 79.1696 20.1948 79.4263C20.7942 79.6824 22.2551 80.2468 23.9583 80.2016C24.2145 80.1976 24.4743 80.1936 24.7357 80.1896C26.175 80.1676 27.6631 80.1448 28.8779 80.1144C29.5881 80.0966 30.2618 80.1276 30.9549 80.1596C31.6016 80.1894 32.2656 80.2201 32.9915 80.2125C33.355 80.2087 33.7477 80.1959 34.1668 80.1821C34.5357 80.17 34.9258 80.1572 35.3342 80.1493C35.7137 80.1421 36.5587 80.159 37.6423 80.1805C38.312 80.1938 39.0729 80.2088 39.8714 80.2211C41.9823 80.2018 44.0934 80.1832 46.2043 80.166C46.6446 80.1388 47.0267 80.1035 47.3292 80.0582C47.5462 80.0256 47.731 79.9867 47.9208 79.947C48.1791 79.8929 48.4463 79.837 48.8146 79.7925C49.1025 79.7576 49.442 79.7438 49.6699 79.7582C49.7761 79.765 49.8576 79.7777 49.9316 79.7892C50.0164 79.8023 50.0921 79.814 50.1845 79.8137C50.2511 79.8134 50.3204 79.8041 50.4057 79.7928C50.5419 79.7748 50.719 79.7515 50.9884 79.7507C51.9912 79.7476 53.1311 79.7551 54.2477 79.7624C55.4894 79.7706 56.703 79.7785 57.6699 79.7716C58.7531 79.7638 60.2966 79.7984 61.8427 79.8329C62.9213 79.857 64.0015 79.881 64.9281 79.8908C65.1584 79.8932 65.391 79.8938 65.6249 79.893L65.5791 79.8938C65.7922 79.8859 66.0063 79.8768 66.2206 79.867L66.1747 79.8693C66.5837 79.8358 66.9887 79.7669 67.3783 79.6697C68.2881 79.4449 69.1054 79.0603 69.7711 78.6876C69.9063 78.6122 70.0881 78.5407 70.3136 78.4371C70.4733 78.3637 70.6559 78.2732 70.8545 78.1533C71.6208 77.5146 72.271 76.7358 72.761 75.8674C72.7737 75.8343 72.7866 75.8001 72.7993 75.7657C72.7995 75.7652 72.7996 75.7646 72.7998 75.7641C73.0791 74.9821 73.3741 73.9301 73.5813 72.4103C73.6091 72.195 73.6325 72.0253 73.6547 71.875C73.6728 71.7337 73.6922 71.6111 73.7107 71.4942C73.7511 71.2385 73.7873 71.0099 73.7949 70.6754C73.8035 70.2955 73.7787 69.8469 73.7517 69.3579C73.7138 68.6712 73.6714 67.9043 73.7108 67.1347C73.7135 67.0821 73.7165 67.0256 73.7194 66.9668C73.7475 66.409 73.789 65.5831 73.8725 64.7614C73.8948 62.3233 73.9209 59.8849 73.9494 57.4468C73.9969 53.3828 74.0511 49.3179 74.1053 45.2543C74.1171 44.3776 74.146 43.5168 74.1904 42.7083L74.1922 42.7623C74.1906 42.6187 74.1895 42.4766 74.189 42.3364L74.1943 42.3897C74.1643 41.7495 73.8803 41.1689 73.5169 40.7535C72.7341 39.8742 71.8604 39.7573 71.8749 39.4965C71.8305 39.3042 72.8462 38.7945 74.365 39.7449C75.0524 40.2017 75.7196 41.0507 75.9207 42.1553L75.9273 42.2203C75.9454 42.3594 75.9632 42.5003 75.9806 42.6428L75.9828 42.7083C76.0272 43.5168 76.0562 44.3776 76.068 45.2543C76.111 48.4781 76.154 51.7031 76.1936 54.9273C76.1986 55.0963 76.2035 55.266 76.2081 55.435C76.242 56.6919 76.3102 57.8581 76.3786 59.0251C76.3942 59.2931 76.41 59.5617 76.4252 59.831ZM36.596 13.2019C37.6007 12.0332 39.73 9.97159 40.9012 8.8375C40.9226 8.81667 40.9441 8.79583 40.9655 8.77499C41.1571 8.58946 41.3402 8.40943 41.5351 8.21659C41.6634 8.0893 41.8019 7.96616 41.9564 7.84591C42.876 7.16269 44.8868 6.06574 47.4683 7.81739L47.5492 7.88211C47.6601 7.98205 47.7745 8.08538 47.8927 8.19226L47.9673 8.26144C48.135 8.43703 48.3109 8.6215 48.4956 8.81554C49.0911 9.40625 49.686 9.99793 50.2796 10.5906C55.0658 15.3685 59.8139 20.1845 64.5468 25.0158C66.2225 26.639 66.1887 29.5869 64.5111 31.1596C63.866 31.7985 63.0055 32.2255 62.1097 32.3515C61.9546 32.3759 61.7956 32.3921 61.6345 32.3994C60.7159 32.4457 59.7055 32.1703 58.8994 31.5705L58.8317 31.5164C58.7145 31.4162 58.5972 31.3157 58.48 31.2152L58.4167 31.1566C57.2977 30.0455 56.1915 28.9364 55.407 28.115C53.8521 26.487 52.8054 25.3718 51.9472 24.4544C50.3876 22.857 48.8272 21.2603 47.2653 19.6651L48.8385 19.0125C48.7812 23.9755 48.7343 28.9385 48.7106 33.9014C48.6998 36.1565 48.6939 38.4119 48.6939 40.6671C48.6939 42.7437 48.6976 44.8209 48.7045 46.8975C48.7298 48.1069 48.7598 49.2567 48.7876 50.323C48.8267 51.8213 48.8615 53.1551 48.8728 54.2569C48.8899 55.9225 48.8793 57.7285 48.8612 59.3954C48.86 60.6931 48.189 61.8563 47.3486 62.5148C46.981 62.81 46.5834 63.0222 46.1969 63.1617C45.9199 63.2673 45.6306 63.3421 45.3369 63.3841L45.2757 63.3902C45.1344 63.401 44.9931 63.4117 44.8518 63.4224L44.7916 63.4245C42.9635 63.468 41.218 62.1014 40.8221 60.2942C40.8035 60.1786 40.79 60.062 40.7817 59.9436L40.7754 59.881C40.7759 59.8515 40.7764 59.822 40.777 59.7923C40.779 59.6816 40.7801 59.5691 40.7806 59.4546L40.7786 59.3954C40.881 57.9395 40.8794 56.1397 40.8772 53.4201C40.8762 52.1429 40.875 50.6625 40.8843 48.9198C40.8903 47.7968 40.9414 47.22 40.983 46.7486C40.9953 46.6099 41.0067 46.4799 41.016 46.3483C41.0477 45.8971 41.0134 45.4216 40.973 44.8598C40.9205 44.131 40.8574 43.2566 40.9144 42.1015C41.0959 38.4209 40.9727 36.7991 40.8796 35.5723C40.8522 35.2125 40.8276 34.8863 40.8138 34.5523C40.7694 33.4695 40.8134 31.9267 40.8739 30.7607C40.9218 29.8362 40.8743 27.9864 40.8138 26.5836C40.791 26.0532 40.7904 25.3358 40.7899 24.491C40.7893 23.6167 40.7888 22.6051 40.7631 21.5229C40.7394 20.5206 40.7201 19.6904 40.704 18.9833L42.3472 19.664C41.5027 20.548 40.9115 21.1652 40.3994 21.6999C40.1689 21.9405 39.9541 22.1644 39.7398 22.3884C39.0624 23.0962 38.2155 23.9681 37.3579 24.8509C36.3317 25.9073 35.2902 26.9795 34.5066 27.8041C33.3792 28.9083 32.2502 30.011 31.1206 31.113C29.7999 32.4496 27.5798 32.7055 26.0005 31.7303C25.8704 31.6523 25.7457 31.5674 25.6265 31.4758L25.5652 31.4268C25.4499 31.3227 25.3359 31.2184 25.2234 31.1142L25.1672 31.062C24.008 29.8683 23.9191 28.1442 24.3596 27.1495C24.6063 26.5462 24.962 26.174 25.2407 25.9795L25.2617 25.9532C25.5477 25.8003 25.7473 25.7608 25.8439 25.8441C25.9405 25.9275 25.9305 26.1308 25.8209 26.436L25.8339 26.4197C25.7681 26.6913 25.6731 27.0487 25.6545 27.4796C25.6121 28.2072 25.8628 29.1097 26.5283 29.7012L26.4814 29.6576C26.6008 29.7537 26.7206 29.8513 26.8404 29.9503L26.7892 29.9092C26.8551 29.9551 26.9228 29.9975 26.9928 30.0369C27.8433 30.5296 29.003 30.3563 29.6591 29.6513C30.8327 28.4485 32.0072 27.2462 33.1834 26.0458C35.7478 23.4284 38.3205 20.819 40.911 18.2277L42.7608 16.4145L42.7352 18.9833C42.7352 19.0347 42.7352 19.0861 42.7352 19.1375C42.7352 21.7366 42.7293 24.3358 42.7187 26.935C42.7176 27.2026 42.7164 27.4702 42.7152 27.7378C42.7761 29.9213 42.8314 32.1007 42.8511 33.6361C42.8674 34.9039 42.8349 35.8282 42.8072 36.6198C42.7881 37.1645 42.7711 37.6465 42.7738 38.1342C42.7753 38.3961 42.779 38.7539 42.7835 39.1853C42.8019 40.947 42.8332 43.939 42.7738 46.6685C42.7475 47.8797 42.6956 49.2867 42.646 50.6299C42.5752 52.5506 42.5091 54.3417 42.5294 55.2459C42.5588 56.5538 42.5435 58.0199 42.5222 59.3954L42.5203 59.3384C42.5276 59.481 42.5348 59.6226 42.5419 59.763L42.5361 59.7054C42.5483 59.8135 42.5681 59.9195 42.5949 60.0225C42.8772 61.1495 43.9569 61.6724 44.4978 61.6669C44.5978 61.6722 44.6948 61.6723 44.7916 61.6679L44.7348 61.6698C44.8766 61.6555 45.0171 61.6428 45.1583 61.6315L45.0997 61.6374C45.5285 61.5668 45.9705 61.4158 46.407 61.0193C46.7588 60.6909 47.1141 60.1624 47.1315 59.3954C47.1341 59.1847 47.1363 58.9644 47.138 58.7335C47.1497 57.1889 47.1842 56.0961 47.2135 55.1672C47.2547 53.86 47.2857 52.8764 47.2287 51.4104C47.1653 49.782 47.125 48.08 47.145 46.7396C47.1541 46.1291 47.1519 45.4307 47.1495 44.7041C47.1465 43.7421 47.1433 42.7302 47.166 41.8064C47.1848 41.0451 47.2327 40.4159 47.2752 39.8591C47.2884 39.6854 47.301 39.5187 47.3121 39.3572C47.3115 38.7509 47.3106 38.1445 47.3092 37.5381C47.3015 37.4399 47.293 37.3368 47.2841 37.229C47.2399 36.6884 47.1856 36.0237 47.1585 35.2009C47.1157 33.8985 47.1425 32.7556 47.171 31.5501C47.1931 30.6115 47.2163 29.6349 47.208 28.5153C47.2023 27.7519 47.1827 26.8826 47.1633 26.0209C47.1344 24.7411 47.1061 23.4773 47.1241 22.5991C47.1309 22.2701 47.161 21.9873 47.1909 21.7074C47.1911 21.7062 47.1913 21.7049 47.1915 21.7037C47.1935 21.6847 47.1955 21.6656 47.1975 21.6466C47.1881 20.7686 47.1783 19.8906 47.1681 19.0125L47.1862 17.2008L48.4453 18.4827C49.3478 19.3629 50.2508 20.2426 51.1541 21.1219C51.2908 21.2473 51.4287 21.3742 51.5654 21.5C52.2332 22.1146 52.882 22.7118 53.3245 23.0818C53.8039 23.4827 54.9345 24.5659 56.1259 25.7074C56.9061 26.4549 57.7127 27.2277 58.3796 27.8503C58.7694 28.2142 59.1054 28.5934 59.451 28.9835C59.6251 29.1801 59.8018 29.3795 59.989 29.5811L59.9328 29.5289C60.0437 29.632 60.1578 29.7356 60.2765 29.8394L60.2169 29.7917C60.2631 29.8266 60.3114 29.8592 60.3623 29.8892C60.5189 29.9815 60.7041 30.0521 60.9072 30.0937C61.086 30.1305 61.2789 30.1451 61.478 30.1351C61.6588 30.1255 62.0903 30.1179 62.5565 29.8484C62.6808 29.7764 62.8056 29.6863 62.9246 29.5757C63.0785 29.4327 63.2172 29.2603 63.3259 29.0618C63.7207 28.2727 63.5384 27.2508 62.9054 26.66C62.7087 26.4679 62.512 26.2758 62.3153 26.0837C62.0622 25.8695 61.8343 25.6918 61.6416 25.5635C61.5034 25.4715 61.3777 25.401 61.2488 25.3285C61.0734 25.2298 60.892 25.1277 60.6649 24.9639C60.4874 24.8359 60.2972 24.6657 60.1864 24.5346C60.1347 24.4735 60.1004 24.4213 60.0692 24.3739C60.0335 24.3197 60.0015 24.2712 59.9522 24.2225C59.9167 24.1873 59.8732 24.1572 59.82 24.12C59.7349 24.0605 59.6244 23.9831 59.4807 23.8408C58.9459 23.3112 58.3457 22.7015 57.7578 22.1042C57.104 21.44 56.4649 20.7909 55.9464 20.2831C55.3656 19.7142 54.5702 18.8713 53.7733 18.027C53.2174 17.438 52.6605 16.8483 52.1753 16.35C51.6997 15.8616 51.1839 15.3738 50.6843 14.9014C50.0846 14.3345 49.5078 13.7892 49.052 13.2913C48.9598 13.1906 48.8665 13.0444 48.7493 12.8611C48.6663 12.7312 48.5705 12.5818 48.4557 12.4176C47.8482 11.8112 47.2417 11.2036 46.6363 10.5952C46.6113 10.5774 46.5855 10.559 46.5597 10.5407C46.5593 10.5404 46.5588 10.5402 46.5584 10.5399C46.405 10.4311 46.2367 10.3118 46.0557 10.1763L46.1261 10.2416C46.0024 10.1624 45.8729 10.0767 45.7381 9.98309L45.8172 10.0463C45.5384 9.91321 45.2214 9.79759 44.7975 9.73443C44.6069 9.70852 44.4779 9.68573 44.3566 9.67069C44.238 9.65749 44.125 9.65362 43.9814 9.70955C43.8186 9.77368 43.6521 9.90485 43.5073 10.0753C43.4901 10.0955 43.473 10.1164 43.456 10.1379C43.1407 10.5023 42.7911 10.8977 42.3918 11.2459C42.362 11.2719 42.3299 11.2998 42.2966 11.3289C41.9806 11.6051 41.513 12.0139 41.0177 12.3909C39.7079 13.6689 38.3951 14.9444 37.0809 16.218C34.8902 18.341 32.6943 20.4597 30.4991 22.5777C29.4309 23.608 28.344 24.5337 27.4733 25.1468C26.6023 25.7597 26.0196 26.0109 25.8483 25.8395C25.677 25.668 25.9284 25.0856 26.5415 24.2148C27.1549 23.3442 28.0808 22.2577 29.1114 21.1897C30.7922 19.4486 32.4735 17.7068 34.1569 15.9679C34.2431 15.8746 34.3297 15.7811 34.4161 15.6883C35.0593 14.9973 35.63 14.3302 36.2012 13.6626C36.3324 13.5093 36.4638 13.3556 36.596 13.2019Z" fill="black"/>
</svg>
