<svg width="50" height="50" viewBox="0 0 50 50" fill="none" xmlns="http://www.w3.org/2000/svg">
<path d="M16.6666 14.5833C16.6666 16.7935 17.5446 18.9131 19.1074 20.4759C20.6702 22.0387 22.7898 22.9167 25 22.9167C27.2101 22.9167 29.3297 22.0387 30.8925 20.4759C32.4553 18.9131 33.3333 16.7935 33.3333 14.5833C33.3333 12.3732 32.4553 10.2536 30.8925 8.69078C29.3297 7.12797 27.2101 6.25 25 6.25C22.7898 6.25 20.6702 7.12797 19.1074 8.69078C17.5446 10.2536 16.6666 12.3732 16.6666 14.5833Z" stroke="black" stroke-width="2" stroke-linecap="round" stroke-linejoin="round"/>
<path d="M12.5 43.75V39.5833C12.5 37.3732 13.378 35.2536 14.9408 33.6908C16.5036 32.128 18.6232 31.25 20.8333 31.25H29.1667C31.3768 31.25 33.4964 32.128 35.0592 33.6908C36.622 35.2536 37.5 37.3732 37.5 39.5833V43.75" stroke="black" stroke-width="2" stroke-linecap="round" stroke-linejoin="round"/>
</svg>
